<svg version="1.0" viewBox="0 0 1280 493.04" xmlns="http://www.w3.org/2000/svg">
 <g transform="matrix(.1 0 0 -.1 0 566.59)" fill="#3f51b5">
  <path d="m3275 5664c-16-2-54-7-83-10-44-5-55-10-64-30-10-21-18-24-69-24-31 0-59-5-61-10-2-6-46-16-98-24s-83-14-69-15 36-10 49-21 30-20 39-21 36-2 61-3c25-2 68-6 97-11 40-6 66-3 123 14 83 25 108 22 30-4-28-9-49-19-46-22 8-8 114 26 119 40 4 9 6 9 6-1 2-29-129-64-236-63-44 0-73-3-73-10 0-16 81-49 123-49 27 0 37-4 34-12-2-9-29-13-84-13-76 0-81 1-111 32-18 17-32 39-32 47 0 10-9 16-25 16-13 0-49 9-78 20-56 21-90 19-80-6 4-10-3-14-25-14-16 0-35-6-41-14-16-19 10-34 74-43 56-7 65-18 23-27-31-6-31-6-12-27 16-18 27-20 68-15 27 3 59 12 72 21 22 14 28 13 81-12 58-29 80-53 46-53-11 0-28 7-39 16-18 15-18 15 3 5 26-13 46-14 39-2-10 16-54 21-83 10-25-9-26-11-10-20 17-10 15-29-4-29-6 0-7 5-4 10 3 6 3 10-2 10-13 0-38-19-32-24 3-3 72-10 154-15 109-8 160-7 187 1 42 12 52 28 14 21-30-6-98 15-91 28 4 5 28 9 55 9 51 0 160 35 160 51 0 5-16 9-35 9s-35 4-35 9c0 11 25 21 51 21 11 0 22 6 25 14 4 11 23 14 72 13 57-1 80 4 151 35 46 20 93 40 105 43 19 7 20 8 2 12-10 3-23 0-29-6-15-15-40-14-31 0 4 7 1 10-7 7s-13-10-12-16c2-6-4-9-13-5-26 10-2 22 97 49 52 14 103 31 113 36 18 10 18 11-5 24-14 8-55 13-97 14-52 0-78 4-88 15-12 12-44 15-148 15-74 0-146 2-162 4s-42 2-59 0z"/>
  <path d="m4648 5664c-10-3-18-10-18-16 0-7-17-8-52-3-105 14-209 14-215-2-9-22 5-28 25-9 18 15 21 15 45-5 15-11 27-25 27-30s-55-9-125-9c-104 0-125-2-125-15 0-18-23-19-53-4-16 9-22 9-25 0-2-7-32-11-82-11-43 0-82-4-85-10-3-5 1-10 10-10s13-4 10-10c-3-5-18-10-32-10-19 0-24 4-19 16s2 15-10 10c-8-3-20-6-25-6s-9-7-9-15c0-19-25-31-80-39-116-17-197-55-87-42 30 4 58 3 61-2s-8-21-23-36c-24-23-45-30-121-42-158-23-174-38-49-47 45-3 86-10 92-16 10-10 3-13-82-28l-44-8 44-22c40-19 53-20 134-13 50 5 122 9 160 9l71 1 67-68c79-79 87-89 87-122l1-25 40 48 21-20c24-25 19-50-14-62-19-7-15-9 25-19 57-15 65-27 35-52-22-19-22-20-4-31 17-10 15-13-20-30l-39-19 33 6c17 3 32 3 32 0 0-11-25-50-38-61-19-15-5-44 19-38 14 4 19 0 19-17 0-48 102-140 156-140 33 0 54-10 54-26 0-18 3-18 50 6 33 17 40 26 40 50 0 57 90 152 159 166 92 19 114 28 131 57 25 40 75 58 190 67 52 4 123 15 156 24 34 9 71 16 83 16s21 5 21 10c0 6-32 10-75 10-70 0-97 12-60 26 8 4 15 12 15 19s14 16 31 20c24 5 36 2 54-15 15-14 30-20 41-16 16 6 15 8-1 26-21 23-77 40-120 37-23-2-29 2-27 15 1 10-6 23-18 30-31 20-24 28 24 28 30 0 46 5 50 15 8 21 27 19 96-10 71-30 84-31 50-5-30 23-26 28 23 32 20 1 37 5 37 8 0 9-57 40-74 40-26 0-18 19 12 27l27 7-33 6c-55 9-41 25 26 28 36 2 60 7 57 12-4 6-17 10-29 10-24 0-38 12-49 43-5 14 1 21 26 32 17 7 38 23 45 34 11 19 10 21-19 21-58 0-25 25 47 34 38 5 71 13 74 17 3 3 34 15 70 25l65 19-50 6c-27 4-70 3-95-2-25-4-87-10-137-13-80-4-93-3-93 11s-12 15-92 9c-51-3-139-18-195-32-57-15-110-23-120-19-16 6-15 8 7 17 69 28 206 60 297 68 124 12 180 30 88 29-93-2-98-1-91 18 6 14-2 15-84 10-265-20-275-20-263-7 6 7 26 16 45 20 29 7 25 8-27 9-33 1-82 3-110 5-27 3-58 2-67 0zm466-635c-3-5-10-7-15-3-5 3-7 10-3 15 3 5 10 7 15 3 5-3 7-10 3-15z"/>
  <path d="m4265 5640c-8-12 20-24 35-15 6 3 8 11 5 16-8 12-32 12-40-1z"/>
  <path d="m4210 5630c0-5 5-10 10-10 6 0 10 5 10 10 0 6-4 10-10 10-5 0-10-4-10-10z"/>
  <path d="m5430 5570c-12-8-12-10 2-15 20-8 41 2 33 16-8 11-16 11-35-1z"/>
  <path d="m8156 5555c-3-8-15-15-26-15-24 0-27-15-4-24 21-8 20-9 38 18 9 14 12 27 7 30s-11-1-15-9z"/>
  <path d="m8293 5553c-20-7-15-23 7-23 11 0 20 4 20 9 0 13-12 19-27 14z"/>
  <path d="m7875 5530c3-5 10-10 16-10 5 0 9 5 9 10 0 6-7 10-16 10-8 0-12-4-9-10z"/>
  <path d="m9277 5534c-13-13-7-24 14-24 11 0 19 5 17 12-5 14-22 21-31 12z"/>
  <path d="m7967 5520c18-18 78-21 98-6 19 14 15 15-43 14-35 0-60-4-55-8z"/>
  <path d="m8195 5520c3-5 10-10 16-10 5 0 9 5 9 10 0 6-7 10-16 10-8 0-12-4-9-10z"/>
  <path d="m9393 5505c-40-17-42-31-7-39 30-8 112 2 119 14s-36 40-60 40c-11-1-35-7-52-15z"/>
  <path d="m7705 5496c-18-13-17-14 6-29 31-19 89-32 89-19 0 5-10 12-22 15-21 6-21 7-3 27s18 20-17 20c-19 0-43-6-53-14z"/>
  <path d="m7823 5498c-9-10-7-18 7-35 20-25 70-42 70-24 0 6-9 11-21 11-30 0-14 17 20 22 19 3 32 0 35-8s22-11 58-9c69 4 68 3 68 16 0 6-12 9-28 8-15-2-33 0-40 5-7 4-31 9-55 12-23 2-56 7-73 10-19 4-34 1-41-8z"/>
  <path d="m8218 5499c-10-5-18-14-18-19 0-16 26-11 51 10 23 18 23 19 4 19-11 0-28-4-37-10z"/>
  <path d="m8310 5500c-8-5-12-11-10-13 9-8 80 5 80 14 0 12-51 11-70-1z"/>
  <path d="m8080 5493c0-5 6-18 14-29 15-19 15-19 38 4 16 16 18 22 8 22-8 0-25 3-37 6-13 4-23 2-23-3z"/>
  <path d="m6857 5450c-16-19-19-19-33-5-9 8-33 15-56 15-34 0-38-2-29-14 10-11 7-17-9-29-20-14-25-13-54 4s-34 17-60 4c-32-17-76-20-76-6 0 5 6 12 13 14 6 3-4 5-23 6-19 0-44-4-55-9-18-8-17-9 8-9 36-1 34-19-5-35-31-13-31-14-8-21 15-5 26-3 28 4 3 8 10 7 24-3 18-13 25-13 49 0 32 16 89 19 89 4 0-6-14-13-30-17-39-7-49-23-16-23 34 0 33-18-1-26l-26-7 37-19 38-20 51 56 52 55 37-12c29-9 37-16 32-29-4-15 1-18 30-18 56 0 51 17-14 41-33 12-65 28-71 35-6 8-18 14-26 14s-11 5-7 11c4 7 36 8 98 4 85-7 96-5 137 16l44 23-50 7c-82 12-100 10-118-11z"/>
  <path d="m7190 5450c0-5 14-10 30-10 17 0 30 5 30 10 0 6-13 10-30 10-16 0-30-4-30-10z"/>
  <path d="m7370 5450c0-5 4-10 9-10 6 0 13 5 16 10 3 6-1 10-9 10-9 0-16-4-16-10z"/>
  <path d="m8170 5450c0-5 5-10 10-10 6 0 10 5 10 10 0 6-4 10-10 10-5 0-10-4-10-10z"/>
  <path d="m9320 5450c0-5 14-10 30-10 17 0 30 5 30 10 0 6-13 10-30 10-16 0-30-4-30-10z"/>
  <path d="m2512 5438c3-7 13-15 22-16 12-3 17 1 14 10-3 7-13 15-22 16-12 3-17-1-14-10z"/>
  <path d="m9383 5438c-41-13-43-28-5-28 16 0 64-9 108-20 43-11 84-18 91-15 16 5 17 61 2 70-6 4-21-3-34-15l-23-22-11 21c-9 17-21 21-54 20-23-1-57-6-74-11z"/>
  <path d="m5450 5420c0-5 7-10 15-10s15 5 15 10c0 6-7 10-15 10s-15-4-15-10z"/>
  <path d="m2320 5415c0-14 35-34 59-35 13 0 48-12 77-27 60-30 84-23 40 12-37 30-176 69-176 50z"/>
  <path d="m9647 5379c-21-17-36-33-33-36 3-4 78 7 156 24 25 5 24 5-10 23-49 27-70 25-113-11z"/>
  <path d="m7065 5390c-8-12 20-24 35-15 6 3 8 11 5 16-8 12-32 12-40-1z"/>
  <path d="m6990 5380c0-5 7-10 15-10s15 5 15 10c0 6-7 10-15 10s-15-4-15-10z"/>
  <path d="m9370 5360c0-5 7-10 16-10 8 0 12 5 9 10-3 6-10 10-16 10-5 0-9-4-9-10z"/>
  <path d="m9835 5360c-3-5 1-10 9-10 9 0 16 5 16 10 0 6-4 10-9 10-6 0-13-4-16-10z"/>
  <path d="m2090 5352 35-4-34-12c-33-12-55-36-32-36 19 0 101 42 101 51 0 5-24 8-52 7-43-1-46-2-18-6z"/>
  <path d="m2604 5345c22-17 46-20 46-6 0 10-25 21-48 21-15-1-14-3 2-15z"/>
  <path d="m5425 5340c-3-5 1-10 9-10 9 0 16 5 16 10 0 6-4 10-9 10-6 0-13-4-16-10z"/>
  <path d="m9325 5340c-3-5 1-10 9-10 9 0 16 5 16 10 0 6-4 10-9 10-6 0-13-4-16-10z"/>
  <path d="m1980 5330c0-5 5-10 10-10 6 0 10 5 10 10 0 6-4 10-10 10-5 0-10-4-10-10z"/>
  <path d="m2307 5324c-8-8 1-24 14-24 5 0 9 7 9 15 0 15-12 20-23 9z"/>
  <path d="m9256 5321c-4-5-2-12 3-15 5-4 12-2 15 3 4 5 2 12-3 15-5 4-12 2-15-3z"/>
  <path d="m9729 5318c-39-15-61-39-48-54 8-10 8-15-2-18-22-7-137-18-214-20-109-4-286-27-324-42-35-15-35-15-13-30 41-28 25-35-85-32-95 3-108 1-111-14-2-12 7-22 30-31 42-18 71-50 66-74-5-27-42-23-46 5-5 31-56 52-138 56-67 3-72-4-22-30 22-11 27-18 18-24-21-13-73 7-102 39l-26 29-20-21c-18-20-19-27-9-64 7-27 17-43 27-43 33 0 87-21 106-41 10-11 30-31 43-45l24-24h-29c-35 0-44 6-67 43-24 38-56 35-87-9-37-52-99-86-136-75-49 15-64 23-64 33 0 11 53 6 82-6 26-12 52 47 50 114-4 161-4 160-58 160-22 0-39-9-60-33-16-17-40-40-54-49l-25-18 44-39c67-60 42-77-59-41-74 26-156 26-195 0-36-24-80-27-72-6 5 12 1 13-27 1-18-8-54-19-80-26-40-10-49-9-59 4-11 14-19 14-77 0-36-8-95-28-131-45-55-25-70-28-87-19-28 15-27 20 0 30 22 8 22 8 3 18-34 19-71 20-66 3 2-8 6-29 9-46l4-31-58-5c-49-4-60-9-84-37-25-32-28-33-66-22-52 15-63 13-40-4 31-23 7-41-35-26-36 12-132 108-117 117 4 3 42-2 84-12 46-10 91-14 116-10 45 7 78 22 78 35 0 12-134 70-191 82-27 6-51 15-55 20-3 5-41 9-84 9-79 0-109 11-67 25 20 7 20 8-8 12-16 3-36 10-43 16-8 6-16 7-20 1-9-12-74-15-66-2 10 16-60 5-72-11-7-9-27-14-53-13-23 1-40-2-36-7 6-10-79-31-126-31-26 0-29-3-23-25 5-22 2-26-26-32-18-3-35-13-37-23-2-9-26-25-53-35s-51-26-53-35c-2-10-19-20-36-23-31-7-32-8-17-29 21-30 20-45-5-58-14-8-29-8-50-1s-31 7-36-3c-5-7-27-25-51-40l-43-27 7-57c3-31 8-60 11-64 9-16 70-7 112 17 23 14 45 25 47 25s22-34 45-75c22-41 43-75 45-75s31 7 64 17c55 15 60 19 60 44 0 16 7 34 15 41 55 46 56 49 30 80-22 26-23 32-12 61 9 23 27 39 66 58 38 19 58 36 67 58 20 47 81 65 120 36 18-14 16-17-50-79-62-58-68-67-62-93 13-52 27-58 99-45 80 15 142 15 168 1 34-18 12-27-87-34-103-8-121-19-89-55 24-26 12-55-18-45-12 4-33 8-47 9-21 1-25-4-28-32-4-43-52-75-101-68-20 3-56-3-90-14-66-24-87-25-94-6-4 11-14 12-43 6-27-6-45-5-66 6-26 13-28 18-22 50s4 36-12 32c-16-3-19-11-16-55l3-51-38-6c-69-12-123-30-123-42 0-15-33-44-52-44-8 0-35-13-59-30-24-16-60-32-79-36-19-3-40-12-46-19-5-8-28-15-50-17l-39-3 40-22c69-37 98-116 53-147-17-12-42-14-135-9l-113 6v-48c0-27-5-63-12-81-10-29-9-36 7-54 10-11 28-20 39-20 12 0 32-7 44-16 21-14 29-14 100 3 80 18 122 46 122 81 0 13 17 26 60 45 43 18 60 31 60 44 0 30 21 43 71 43 25 0 65 7 88 15 49 17 62 13 121-34 24-20 76-52 115-71 59-29 71-39 73-63 5-38 22-23 22 19 0 31 3 35 20 29 41-13 18 5-40 31-54 24-150 108-150 131 0 17 40 34 53 23 22-18 81-58 135-90 29-17 60-43 70-58 29-43 99-112 113-112 11 0 11 2-1 10-8 5-11 12-7 16s15 0 24-9c15-15 15-17-10-26-26-10-37-31-17-31 17 0 70 30 70 39 0 4-11 18-25 31-30 28-32 40-6 40 11 0 23 5 26 10 3 6 32 10 64 10 63 0 87 15 77 48-4 13 5 36 27 68 57 82 162 119 162 58 0-12 12-22 33-28 39-11 54 0 27 20-17 13-18 16-5 24 8 5 37 14 64 20 60 13 79 1 51-30-22-25-17-32 57-75 66-39 80-61 53-81-23-18-113-15-207 7-50 11-66 11-135-5-43-10-87-25-98-32-11-8-30-14-42-14-26 0-31-28-13-74 13-34 60-44 198-41l114 2-6-30c-9-47-58-147-75-156-28-15-215-3-306 18-121 29-149 28-175-8-11-17-29-33-40-36s-62 10-122 34c-57 21-121 46-143 53-39 13-40 16-40 58 0 73-1 73-144 66-71-4-173-18-235-32-118-26-176-30-193-13-7 7-17 2-33-20-12-17-34-38-50-46-44-23-60-44-60-80 0-26-8-39-36-62-64-51-199-178-206-193-4-8-7-55-7-103-1-54-7-101-16-124-17-39-17-39 94-154 23-23 41-50 41-60 0-24 81-84 141-104 38-13 59-14 110-5 35 5 89 10 119 10s82 7 115 15c86 21 115 18 160-12 30-21 49-26 83-24 65 4 72-7 72-112v-90l45-48c25-26 45-53 45-60 0-6 11-24 24-40 16-19 27-47 31-81 6-46 3-61-24-118-38-80-38-99-2-164 16-28 37-81 45-119 17-75 45-132 105-222 40-58 52-95 31-95s-9-20 22-36c25-13 47-15 107-10 123 11 193 26 237 51 64 37 132 119 149 179 13 44 22 56 54 74 21 12 41 28 44 36 5 13-4 65-17 96-9 21 24 50 102 91 35 18 72 44 83 57 25 32 25 113 1 167-10 22-24 61-31 86-11 40-11 51 2 75 29 54 91 115 182 177 98 69 168 147 216 242 16 32 35 63 42 67 17 11-12 10-121-6-51-7-104-11-118-8-15 3-63 44-117 100-51 52-107 110-124 128-24 24-33 42-33 67 0 40-41 113-113 201-26 32-45 62-41 67 9 14 34 10 41-6 5-14 7-14 23 0s20 13 50-22c18-20 41-56 52-80 10-24 25-43 33-43 19 0 45-39 45-68 0-15 21-46 60-86 49-51 62-71 69-110 16-87 21-88 184-33 174 60 290 115 340 162 20 19 37 38 37 42 0 3 7 14 15 24 15 15 11 19-41 49-31 17-59 40-61 51-6 21-18 25-28 9-11-18-83-50-113-50-22 0-35 10-58 41-16 22-46 63-67 90s-35 54-32 59c3 6 22 10 41 10 25 0 44-9 73-35 50-45 98-65 161-65 35 0 52-5 56-14 9-23 31-27 174-35 123-7 139-10 175-34 22-15 55-29 73-33 37-8 49-19 27-28-21-8-18-24 6-31 14-5 28 0 44 15 12 12 25 18 28 13 2-4 7-37 11-73 5-46 19-90 48-150 43-89 115-200 129-200 19 0 59 78 65 125 10 89 11 91 86 138 40 25 101 69 136 96 39 33 72 51 88 51 15 0 44 5 66 12l39 11 54-53c49-49 55-59 55-97 0-23 4-44 10-48 7-4 54 12 91 32 14 8 59-159 59-216 0-45 5-64 25-91 14-19 25-39 25-46 0-19 69-102 91-109 29-10 32-3 18 43-8 27-36 66-81 113-59 62-68 77-63 98 13 54 32 71 80 71 29 0 49-6 57-16 7-9 25-28 41-42 15-15 27-34 27-44s3-18 6-18 37 19 75 41c76 45 73 39 53 137-2 13-30 50-60 83-61 67-61 71 2 110 23 14 43 19 60 15 13-4 46 1 71 9 26 9 79 23 117 31 86 18 160 65 213 137 21 27 42 56 48 63 7 10 4 18-10 28-20 14-20 15-1 22 18 7 18 8-2 15-25 9-30 29-7 29 21 0 19 7-16 51-17 21-29 47-27 56 2 10 28 30 58 45l55 28h-70c-82 0-126 20-103 47 16 20 106 63 131 63 18 0 24-25 7-35-5-3-10-11-10-17s11-3 25 6c26 17 55 20 93 10 18-5 22-12 18-29-4-16 2-27 24-44 23-17 30-29 30-56 0-19 2-35 5-35 22 0 75 32 75 45 0 8-13 39-30 68l-29 53 32 25c119 95 130 101 164 94 44-8 79 14 164 102 77 80 109 136 116 208 5 46 3 54-16 68-15 10-35 13-61 10-51-7-125 24-108 45 20 23 125 91 203 131l74 38 163-3c90-2 170-4 178-5 30-4 50 1 50 14 0 27 124 86 183 86 38 1 45-7 25-27-21-21-2-23 43-3 24 11 50 29 57 40 12 20 52 30 52 13 0-19-35-54-73-74-23-11-70-39-103-62-34-23-75-49-92-58-42-22-59-83-43-153 18-79 23-83 67-47 21 18 44 32 51 32 6 0 13 10 15 23s15 28 35 37c18 8 33 24 35 35s13 24 25 31c13 6 19 14 14 20-20 21-22 71-4 93 29 36 198 72 237 51 20-10 36-7 117 25 64 26 116 40 162 43 49 3 67 9 67 19 0 18-45 63-63 63-8 0-21 7-28 17-13 15-9 16 41 11 58-6 90 3 90 26 0 8 6 19 14 25 12 10 17 8 26-9s17-20 42-15c29 7 45 1 131-42 26-14 29-13 48 10 10 14 35 31 54 37s35 15 35 19c0 8-93 41-115 41-7 0-15-7-19-15-8-23-31-18-44 10-24 52-162 96-375 120-77 8-140 15-141 15s-1-13 2-30c5-34-7-38-55-19-15 7-90 15-166 19-136 6-139 7-161 34l-22 29-126-2c-77-1-129 3-133 9-3 5-17 10-30 10-14 0-31 11-43 27l-20 27-61-17c-74-21-90-22-73-5 24 24 11 28-83 28-88 0-95-1-95-20 0-32-31-39-154-36-92 3-119 1-123-10-9-24-41-25-85-3-92 46-122 79-73 79 32 0 32 14 0 28-36 16-96 15-168-4-63-16-140-12-165 8-8 7-45 9-98 5l-85-5-15 29c-11 22-22 29-44 29-42 0-46-17-5-24 19-4 35-11 35-17s-7-6-19 1c-11 5-32 10-47 10-26 0-26-1-9-13 16-13 14-15-28-25-61-16-145-16-130-1 19 19 157 79 183 79 35 1 65 21 67 46 2 18-4 23-40 28-23 4-76 6-117 5s-92 3-113 10c-34 12-36 14-21 25 16 12 15 13-8 18-14 2-36 1-49-4zm-2517-735c26-24 22-33-15-33-34 0-57 15-57 37 0 19 50 16 72-4zm723-558c0-14-8-21-30-25-16-3-30-10-30-15 0-6-4-15-8-22-5-8 2-21 18-35 14-12 25-30 25-39 0-24 16-32 38-20 13 7 22 7 30-1 19-19 14-28-12-28-31 0-43-17-18-24 22-7 30-85 10-98-21-13-87-9-118 7-35 18-35 17-13 73 16 41 16 45 0 54-21 11-67 100-67 127 0 23 38 46 97 60 55 14 78 9 78-14zm275-29c0-28-24-51-45-42-20 7-19 22 5 46 27 27 40 25 40-4z"/>
  <path d="m2846 5311c-4-5-2-12 3-15 5-4 12-2 15 3 4 5 2 12-3 15-5 4-12 2-15-3z"/>
  <path d="m9476 5311c-4-5-2-12 3-15 5-4 12-2 15 3 4 5 2 12-3 15-5 4-12 2-15-3z"/>
  <path d="m1900 5300c-8-5-26-10-41-10-14 0-50-12-79-27l-55-27 35-7c29-6 39-4 61 17 15 14 35 25 45 24 34-4 43 0 54 20 12 22 4 25-20 10z"/>
  <path d="m9216 5301c-4-5-2-12 3-15 5-4 12-2 15 3 4 5 2 12-3 15-5 4-12 2-15-3z"/>
  <path d="m9866 5301c-4-5-2-12 3-15 5-4 12-2 15 3 4 5 2 12-3 15-5 4-12 2-15-3z"/>
  <path d="m2005 5280c4-6 11-8 16-5 14 9 11 15-7 15-8 0-12-5-9-10z"/>
  <path d="m3495 5280c3-5 10-10 16-10 5 0 9 5 9 10 0 6-7 10-16 10-8 0-12-4-9-10z"/>
  <path d="m6966 5281c-4-5-2-12 3-15 5-4 12-2 15 3 4 5 2 12-3 15-5 4-12 2-15-3z"/>
  <path d="m11346 5281c-4-5-2-12 3-15 5-4 12-2 15 3 4 5 2 12-3 15-5 4-12 2-15-3z"/>
  <path d="m2640 5271c0-11 13-15 83-26 23-4 43-14 52-29 20-30 118-46 283-46 135 0 158 5 165 31 4 15 1 18-16 14-49-9-249-16-302-10-38 5-65 15-81 30-18 17-43 25-87 30-34 3-70 9-79 11-10 3-18 1-18-5z"/>
  <path d="m2188 5243c-3-26-6-28-48-27-25 1-74 8-110 16-71 17-93 14-88-11 3-12 14-15 48-14 45 3 88-13 63-24-7-2-13-8-13-12 0-8 42-3 170 19 69 12 104 30 57 30-17 0-32 9-43 25-21 32-32 32-36-2z"/>
  <path d="m2458 5263c-27-7-22-21 15-43 56-34 111-19 71 20-21 19-59 30-86 23zm47-24c4-6 5-12 2-15-7-7-37 7-37 17 0 13 27 11 35-2z"/>
  <path d="m8395 5254c-27-7-72-14-100-14-27 0-75-7-105-15s-75-15-99-15c-34 0-42-3-38-15 4-8-7-25-26-41-20-17-27-29-19-31 19-7 14-22-6-16-19 4-82-40-82-58 0-5 11-9 25-9s29-8 35-20c8-16 21-20 57-20h46l-27 21c-40 32-33 51 41 108 70 54 100 65 258 96 50 9 104 23 120 30l30 13h-30c-16 0-52-6-80-14z"/>
  <path d="m9500 5260c0-5 4-10 9-10 6 0 13 5 16 10 3 6-1 10-9 10-9 0-16-4-16-10z"/>
  <path d="m2365 5250c3-5 10-10 16-10 5 0 9 5 9 10 0 6-7 10-16 10-8 0-12-4-9-10z"/>
  <path d="m11460 5250c0-5 4-10 9-10 6 0 13 5 16 10 3 6-1 10-9 10-9 0-16-4-16-10z"/>
  <path d="m10873 5228c2-7 10-13 17-13s15 6 18 13c2 7-5 12-18 12s-20-5-17-12z"/>
  <path d="m10967 5233c-4-3-7-14-7-24 0-15 10-17 78-16 76 2 78 2 74 24-5 25-12 29-28 13-6-6-22-6-44 0-41 12-64 13-73 3z"/>
  <path d="m11142 5228c6-16 33-22 56-13 15 6 15 8-3 15-31 13-57 12-53-2z"/>
  <path d="m1840 5220c0-5 7-10 15-10s15 5 15 10c0 6-7 10-15 10s-15-4-15-10z"/>
  <path d="m2403 5213c9-9 19-14 23-11 10 10-6 28-24 28-15 0-15-1 1-17z"/>
  <path d="m2600 5220c0-5 5-10 10-10 6 0 10 5 10 10 0 6-4 10-10 10-5 0-10-4-10-10z"/>
  <path d="m5410 5210c0-5 7-10 15-10s15 5 15 10c0 6-7 10-15 10s-15-4-15-10z"/>
  <path d="m11285 5209c4-5 22-9 42-9 45 0 40 5-10 13-22 3-35 2-32-4z"/>
  <path d="m2340 5200c0-5 5-10 10-10 6 0 10 5 10 10 0 6-4 10-10 10-5 0-10-4-10-10z"/>
  <path d="m2652 5198c7-20 58-23 58-4 0 11-10 16-31 16-20 0-29-4-27-12z"/>
  <path d="m8960 5200c0-5 7-10 15-10s15 5 15 10c0 6-7 10-15 10s-15-4-15-10z"/>
  <path d="m5450 5190c0-5 7-10 15-10s15 5 15 10c0 6-7 10-15 10s-15-4-15-10z"/>
  <path d="m6740 5180c0-5 7-10 15-10s15 5 15 10c0 6-7 10-15 10s-15-4-15-10z"/>
  <path d="m10860 5160c0-5 7-10 15-10s15 5 15 10c0 6-7 10-15 10s-15-4-15-10z"/>
  <path d="m1708 5148c-9-7-18-24-20-38s-13-29-24-34c-20-9-19-11 14-28 44-22 72-23 98-3 10 8 25 15 32 15s26 10 42 22 43 21 60 21c33 0 41 21 13 36-10 5-58 12-108 16-68 5-94 3-107-7z"/>
  <path d="m11063 5144c-3-9 0-20 8-25 19-12 79-11 79 1 0 6-8 10-19 10-10 0-24 7-31 15-16 19-29 19-37-1z"/>
  <path d="m2542 5131c-44-13-51-18-40-30 11-11 7-13-24-9-45 5-40-2 28-36 75-38 160-19 108 25-9 8-13 21-10 35 8 31-1 33-62 15z"/>
  <path d="m2720 5141c-24-7-26-12-22-61 2-23 30-27 38-5 3 8 26 24 50 35 24 12 42 26 38 31-6 10-67 10-104 0z"/>
  <path d="m8560 5140c0-5 5-10 10-10 6 0 10 5 10 10 0 6-4 10-10 10-5 0-10-4-10-10z"/>
  <path d="m8745 5130c-3-5 1-10 9-10 9 0 16 5 16 10 0 6-4 10-9 10-6 0-13-4-16-10z"/>
  <path d="m2300 5121c0-5-11-12-25-15-14-4-29-14-32-24-14-39-23-41-59-17-28 19-47 24-89 22-30-1-57-6-61-10-14-14-34-7-34 13 0 11-3 20-6 20-5 0-106-41-113-46-2-2 4-15 13-29 15-23 22-25 90-25 41 0 81-3 90-6 35-13 1-24-76-24-45 0-78-3-75-6 9-9 105-44 139-51 15-3 64 3 110 13 97 22 156 21 218-1 30-10 41-12 32-3-18 18-15 27 16 40 27 11 26 12-20 18-52 7-80 27-99 72-10 23-10 35-1 49 10 15 9 19-3 19-8 0-15-4-15-9z"/>
  <path d="m3200 5116c0-20 18-24 75-16 49 6 50 7 22 18-40 17-97 16-97-2z"/>
  <path d="m2903 5100c-40-24-43-57-10-95 22-26 25-26 197-34 220-11 349-39 342-75-2-10 2-14 12-10 11 4 22-4 33-25 14-24 25-31 50-31 38 0 51-15 25-29-13-7-29-7-50 1-38 15-94-4-73-25 9-9-4-14-60-22-100-14-104-35-7-32 64 2 79-1 120-25 26-16 54-28 62-28 9 0 16-4 16-8 0-5 35-16 78-26 42-10 84-20 92-22 11-4 10-1-2 9-22 17-23 27-4 27 8 0 18 5 21 10 12 20-5 46-55 84-28 21-50 42-50 47s11 14 24 20c21 10 32 7 72-15 56-31 80-33 94-6 6 11 17 20 25 20s15 4 15 8c0 11-46 32-70 32-10 0-21 4-25 9-3 5-30 15-60 22-67 15-87 33-59 54 18 13 17 15-21 31-22 9-59 19-82 22-48 5-51 9-25 28 21 16 0 19-28 4-22-12-74 4-102 32-24 24-113 26-122 2-5-12-13-14-38-8-18 4-40 8-48 9-27 2-40 16-40 41 0 21-5 24-33 24-18 0-41-6-51-13-18-13-25-55-15-86 2-7-1-15-7-18-19-7-44 26-43 55 2 24 2 24 6 5 5-27 23-31 23-5 0 58-66 80-127 42zm772-422c42-19 28-28-20-11-25 8-45 17-45 19 0 8 40 4 65-8z"/>
  <path d="m5199 5094c18-8 36-13 39-10 6 6-43 26-61 25-7 0 3-7 22-15z"/>
  <path d="m1895 5090c-3-6 1-7 9-4 18 7 21 14 7 14-6 0-13-4-16-10z"/>
  <path d="m2665 5010c-23-25-13-50 20-50 35 0 43-27 16-53-23-23-44-26-246-30-69-2-98 2-124 16-20 10-56 17-88 17-54 0-72-14-28-22 13-3 22-1 19 3-3 5 2 9 10 9 24 0 19-15-10-29-15-7-24-17-21-25 3-7 1-18-5-24-8-8-21-3-45 18-31 28-39 30-116 30-90 0-122 10-91 29 17 9 17 12 4 21-8 6-31 8-51 5-20-2-60 2-90 12-30 9-90 17-134 19-44 1-96 5-115 9-28 5-55-1-125-29-89-36-132-45-120-26 4 6 24 18 46 27 59 23 47 34-12 12-29-11-58-18-65-15-16 6-18-5-5-20 4-5 11-21 15-36 5-24 3-28-14-28-13 0-24 11-33 33-14 32-15 33-153 59-139 27-372 54-396 46-7-3-27 1-45 8-17 8-65 16-106 18-65 5-87 1-162-24-48-16-93-34-100-40-6-5-38-18-71-28l-59-18 48-28c26-16 67-34 90-41s42-18 42-26c0-11-21-14-97-14-64 0-101-4-109-12-11-11-10-13 4-13 9 0 21-9 26-19 15-28 97-37 145-17 32 13 38 13 43 1 3-8 3-21 0-28-6-17-68-47-94-47-20 0-63-34-63-49 0-23 44-61 78-67 20-4 47-14 60-22 12-8 51-17 87-20 53-4 65-8 65-22 0-30-53-65-154-101-28-9-42-18-31-18 57-1 315 125 315 154 0 23 70 85 94 85 31 0 33-10 6-33-41-35-14-50 41-22 16 9 27 20 24 25s4 14 16 20c17 9 30 8 69-9 27-11 81-25 122-31 40-6 106-19 146-30s86-20 103-20c21 0 39-10 62-35 18-18 53-43 79-54 48-20 66-49 59-93-1-11 7-20 24-24 19-5 25-12 22-25s1-19 17-21c13-2 21-10 21-22 0-14 10-22 34-28 61-16 167-96 158-121-2-6-16-11-30-10-33 2-36-8-38-132-2-120 11-169 52-190 16-9 29-22 29-30 0-22 56-81 90-95 16-7 30-16 30-20s11-11 24-14c16-4 35-25 55-59 17-29 40-62 51-72 12-11 18-26 15-35-4-12 6-26 30-45 20-15 40-37 44-48 9-23 91-75 91-58 0 5-6 14-14 18-19 12-101 115-137 174-26 41-29 53-18 60 21 13 29 11 52-17 59-70 211-234 217-234 12 0 43-51 45-74 1-12 3-24 4-28 2-10 96-52 194-87 57-20 108-31 142-31 38 0 73-9 122-31 37-17 92-37 122-45 70-18 120-58 121-97 0-13 6-16 24-11 17 4 27 1 33-11 5-9 35-23 67-31 53-14 60-14 76 1 55 50 128-73 88-148-6-12-30-44-54-70-51-57-67-111-38-131 17-13 16-14-7-26-13-7-25-14-27-15-2-2 12-27 31-56 19-30 55-95 80-146 51-100 65-113 190-184 46-25 77-49 76-58 0-9-10-115-23-237-21-214-23-222-55-274s-45-114-42-195c6-132 5-165-6-176-9-9-15-9-27 0-15 13-36 7-36-10 0-5 6-9 14-9 17 0 76-48 76-61 0-5-9-9-20-9-17 0-20-7-20-41 0-22-5-49-10-60-9-16-7-19 12-19 29 0 91-37 83-50-12-19 11-9 41 19 18 16 35 38 38 49 4 10 34 46 67 80l60 60-28 14c-46 22-40 88 7 88 12 0 21 10 25 31 4 19 15 33 26 36 23 6 25 19 4 27-8 3-15 15-15 26 0 16 6 20 34 20 27 0 40 7 59 31 21 26 35 33 101 44 113 20 133 46 76 100-38 37-30 48 23 29 38-13 46-13 84 1 45 17 102 71 158 150 29 41 35 58 33 90l-3 40 85 43c47 24 109 47 138 52 58 10 76 25 113 99 15 30 24 70 27 120l5 76 69 73c63 67 69 77 66 110-2 30-9 40-35 53-17 9-44 24-59 34-17 11-60 21-112 26-65 7-96 16-137 39-64 37-75 37-125 4-28-19-47-24-65-20-34 9-32 21 7 32 17 5 33 15 36 22 6 20-30 13-73-13-22-14-46-25-53-25-19 0 15 42 56 70l33 23-21 22c-11 12-20 29-20 37 0 17-38 49-75 62-11 4-47 12-79 16-46 7-74 19-129 57-38 26-75 56-82 66-11 15-28 19-87 21-79 3-163 20-184 37-15 12-54-21-54-45 0-23-21-30-38-12-15 15-15 18 2 47l18 30-51-25c-28-14-57-26-64-26-8 0-22-16-33-35-21-40-25-41-60-19-19 13-39 16-91 11-64-6-66-6-99 27-32 32-33 35-27 90 7 70 5 72-94 82-83 7-86 12-53 85 11 24 20 55 20 68 0 22-3 23-45 18-50-5-82-28-87-61-4-30-100-46-155-25-75 29-109 121-86 239 7 40 13 47 53 68 39 19 56 22 120 18 41-3 91-8 110-12 32-7 34-6 21 10-22 27 1 36 89 36 94 0 131-19 148-78 14-45 59-89 75-73 7 7-1 40-21 95l-31 86 56 47c31 27 76 66 100 88 41 38 43 43 33 70-6 16-8 41-5 55l7 25 18-22c21-27 30-29 30-8 0 25 69 83 108 90 49 9 54 13 42 34-7 14-4 23 14 40 25 23 173 71 221 70h30l-30-13c-31-14-61-43-53-52 3-2 18 2 34 11 58 30 149 69 157 67 4-1 7 3 7 8 0 15-23 12-46-5-24-18-63-19-70-1-3 8-13 12-23 9-10-2-32 8-51 24l-34 28 29 5c15 3 30 11 33 19 7 21-91 7-135-19-36-21-63-26-63-11 0 11 82 62 125 78 17 7 73 15 125 18 52 4 129 14 170 24l75 17v69l-72-3c-40-1-73 2-73 7 0 9 41 28 75 33 13 3-6 14-53 33-43 17-78 37-84 49s-24 36-39 54c-16 18-29 39-29 48 0 24-28 27-58 5-16-11-48-25-71-30-39-8-45-7-73 18s-29 29-17 50c11 19 11 25 1 28-7 3-34 16-60 30-49 26-132 40-175 29-26-6-54-57-43-75 4-6 1-29-5-51-11-37-10-42 9-63 28-30 28-45-3-103-14-26-25-62-25-81 0-79-41-94-117-42-43 30-45 33-41 74l3 43-55 7c-30 4-93 22-140 41-46 19-91 34-100 34-21 0-40 20-40 42 0 13-8 18-29 18-28 0-61 29-61 53 0 5 35 44 78 87 72 70 83 78 126 82 27 3 55 13 64 21 14 14 12 16-14 22-55 12-61 16-39 25 26 11 77 12 92 2 21-13 26-58 8-75-14-15-14-17 4-27 30-15 52-12 77 11 20 19 27 20 55 10 18-6 39-11 48-11 31 1-37 48-92 64-29 9-62 25-72 36-18 20-18 20 16 20 40 0 109 18 127 32 10 9 9 14-4 29-9 11-13 25-9 38 7 24-15 38-71 43-34 3-39 1-36-17 1-13-10-32-28-50-36-35-59-27-74 23-11 40-31 47-67 21-30-21-49-19-49 6 0 8-11 17-25 21-19 5-24 11-20 24 7 22-37 60-70 60-12 0-30-9-40-20zm250-850c3-5-1-10-10-10s-13 5-10 10c3 6 8 10 10 10s7-4 10-10zm58-61c12-7 38-26 58-44 25-23 53-35 97-44 34-7 62-16 62-22 0-5-4-9-10-9-5 0-15-12-23-26-12-23-15-24-26-10-8 9-19 16-27 16-7 0-14 10-16 23-4 28-43 35-68 12-11-10-27-40-36-67-19-58-34-49-34 20 0 44 1 45 65 67 36 13-42 37-121 38l-72 1 52 27c59 31 69 33 99 18zm375-31c-3-7-11-13-18-13s-15 6-17 13c-3 7 4 12 17 12s20-5 18-12zm-118-36c0-13-12-22-22-16s-1 24 13 24c5 0 9-4 9-8zm109-86c-2-2-35-15-74-29-38-13-87-32-107-41-47-20-50-13-5 10 70 37 209 81 186 60z"/>
  <path d="m12590 5020c0-5 4-10 9-10 6 0 13 5 16 10 3 6-1 10-9 10-9 0-16-4-16-10z"/>
  <path d="m12410 5010c-19-12 52-12 90 0 20 6 15 8-25 9-27 0-57-4-65-9z"/>
  <path d="m1495 5e3c3-5 10-10 16-10 5 0 9 5 9 10 0 6-7 10-16 10-8 0-12-4-9-10z"/>
  <path d="m5790 5e3c0-5 4-10 9-10 6 0 13 5 16 10 3 6-1 10-9 10-9 0-16-4-16-10z"/>
  <path d="m5745 4980c3-5 10-10 16-10 5 0 9 5 9 10 0 6-7 10-16 10-8 0-12-4-9-10z"/>
  <path d="m8152 4978c6-16 55-34 65-24s-26 36-50 36c-10 0-17-5-15-12z"/>
  <path d="m6715 4970c3-5 10-10 16-10 5 0 9 5 9 10 0 6-7 10-16 10-8 0-12-4-9-10z"/>
  <path d="m2555 4946-20-15 20-15c24-19 30-19 78-2 40 15 47 11 20-10-17-12-17-13 3-14 17 0 54 36 54 52 0 2-21 3-47 4-27 0-57 4-68 8-12 4-28 1-40-8z"/>
  <path d="m4150 4940c0-5 7-10 16-10 8 0 12 5 9 10-3 6-10 10-16 10-5 0-9-4-9-10z"/>
  <path d="m7793 4935c-3-9-3-19 1-22 8-9 56 14 56 27 0 16-50 12-57-5z"/>
  <path d="m3220 4930c0-5 7-10 15-10s15 5 15 10c0 6-7 10-15 10s-15-4-15-10z"/>
  <path d="m1348 4913c7-3 16-2 19 1 4 3-2 6-13 5-11 0-14-3-6-6z"/>
  <path d="m6585 4910c-3-5 1-10 9-10 9 0 16 5 16 10 0 6-4 10-9 10-6 0-13-4-16-10z"/>
  <path d="m3235 4890c-3-5 1-10 9-10 9 0 16 5 16 10 0 6-4 10-9 10-6 0-13-4-16-10z"/>
  <path d="m6530 4890c0-5 5-10 10-10 6 0 10 5 10 10 0 6-4 10-10 10-5 0-10-4-10-10z"/>
  <path d="m3325 4870c-8-12 20-24 35-15 5 3 10 10 10 16 0 12-37 12-45-1z"/>
  <path d="m3518 4808c9-9 15-9 24 0s7 12-12 12-21-3-12-12z"/>
  <path d="m5413 4803c-35-2-63-8-63-14 0-13-62-39-97-40l-28-1 30-10c16-6 36-18 44-26 11-11 31-13 80-9 58 4 172 35 187 50 11 10-48 57-69 55-12-1-50-3-84-5z"/>
  <path d="m5230 4790c-11-7-7-10 17-10 17 0 35 5 38 10 8 13-35 13-55 0z"/>
  <path d="m6400 4710c0-5 4-10 9-10 6 0 13 5 16 10 3 6-1 10-9 10-9 0-16-4-16-10z"/>
  <path d="m0 4681c0-13 27-21 68-21 35 1 36 2 18 15-21 16-86 21-86 6z"/>
  <path d="m3320 4680c0-5 7-10 15-10s15 5 15 10c0 6-7 10-15 10s-15-4-15-10z"/>
  <path d="m3260 4670c0-5 7-10 15-10s15 5 15 10c0 6-7 10-15 10s-15-4-15-10z"/>
  <path d="m3080 4635c-10-12-10-15 3-15 23 0 47 11 47 21 0 15-37 10-50-6z"/>
  <path d="m3204 4639c-10-17 13-36 27-22 12 12 4 33-11 33-5 0-12-5-16-11z"/>
  <path d="m5800 4626c0-8-3-21-6-30-4-11-1-16 10-16 9 0 16 3 16 8 0 4 3 17 6 30 5 16 2 22-10 22-9 0-16-6-16-14z"/>
  <path d="m6004 4569c-11-18 11-32 25-16 9 12 8 16-3 20-9 4-18 1-22-4z"/>
  <path d="m3630 4560c0-5 7-10 16-10 8 0 12 5 9 10-3 6-10 10-16 10-5 0-9-4-9-10z"/>
  <path d="m6760 4560c0-5 7-10 16-10 8 0 12 5 9 10-3 6-10 10-16 10-5 0-9-4-9-10z"/>
  <path d="m145 4551c-6-11 9-23 19-14 9 9 7 23-3 23-6 0-12-4-16-9z"/>
  <path d="m5917 4491c-42-27-59-56-51-88 9-37 22-53 45-53 10 0 23-10 30-21 9-18 6-25-23-52l-33-31 33-8c38-10 35-24-8-33-16-4-33-11-36-17-5-7 1-9 17-5 13 3 60 9 103 13 57 5 84 12 98 26 24 24 23 36-4 40-13 2-28 15-36 30-7 15-33 45-59 67-43 39-45 42-29 59 23 27 20 32-14 26-37-8-40 9-8 43 26 28 14 30-25 4z"/>
  <path d="m305 4480c3-5 10-10 16-10 5 0 9 5 9 10 0 6-7 10-16 10-8 0-12-4-9-10z"/>
  <path d="m5800 4480c0-5 7-10 15-10s15 5 15 10c0 6-7 10-15 10s-15-4-15-10z"/>
  <path d="m6845 4480c3-5 10-10 16-10 5 0 9 5 9 10 0 6-7 10-16 10-8 0-12-4-9-10z"/>
  <path d="m623 4463c-18-9-33-23-33-30s2-13 5-13c13 0 62 30 74 44 18 21-2 21-46-1z"/>
  <path d="m1220 4450c0-5 4-10 9-10 6 0 13 5 16 10 3 6-1 10-9 10-9 0-16-4-16-10z"/>
  <path d="m5800 4440c0-5 7-10 15-10s15 5 15 10c0 6-7 10-15 10s-15-4-15-10z"/>
  <path d="m6700 4434c0-17 22-14 28 4 2 7-3 12-12 12s-16-7-16-16z"/>
  <path d="m30 4410c0-5 7-10 15-10s15 5 15 10c0 6-7 10-15 10s-15-4-15-10z"/>
  <path d="m570 4400c0-5 5-10 10-10 6 0 10 5 10 10 0 6-4 10-10 10-5 0-10-4-10-10z"/>
  <path d="m3210 4390c0-5 5-10 10-10 6 0 10 5 10 10 0 6-4 10-10 10-5 0-10-4-10-10z"/>
  <path d="m1326 4383c-12-12-6-33 9-33 8 0 15 6 15 14 0 17-14 28-24 19z"/>
  <path d="m540 4370c0-5 7-10 16-10 8 0 12 5 9 10-3 6-10 10-16 10-5 0-9-4-9-10z"/>
  <path d="m11920 4370c0-5 7-10 15-10s15 5 15 10c0 6-7 10-15 10s-15-4-15-10z"/>
  <path d="m6455 4359c-10-15 1-23 20-15 9 3 13 10 10 16-8 13-22 13-30-1z"/>
  <path d="m5772 4352c-7-2-12-10-12-17 0-8-9-17-21-20-12-4-18-12-15-21 3-7 1-16-4-19-10-6-14-45-5-45 2 0 29 9 60 21 55 21 75 47 62 83-6 14-44 25-65 18z"/>
  <path d="m6570 4350c0-5 7-10 15-10s15 5 15 10c0 6-7 10-15 10s-15-4-15-10z"/>
  <path d="m235 4340c-3-5 1-10 9-10 9 0 16 5 16 10 0 6-4 10-9 10-6 0-13-4-16-10z"/>
  <path d="m11108 4297c-16-38-16-46-3-82 8-22 14-70 15-107 0-69 6-83 30-68 12 7 11 12-4 29-10 10-16 30-14 43 2 18 8 22 29 20l26-2-23 47c-17 33-24 63-24 105 0 32-3 58-7 58-5 0-16-19-25-43z"/>
  <path d="m11995 4330c-3-5 1-10 9-10 9 0 16 5 16 10 0 6-4 10-9 10-6 0-13-4-16-10z"/>
  <path d="m137 4324c-9-10 2-24 19-24 8 0 14 7 14 15 0 15-21 21-33 9z"/>
  <path d="m1322 4316c1-10 8-17 13-17 15 1 12 24-3 29-9 3-13-2-10-12z"/>
  <path d="m76 4291c-4-5-2-12 3-15 5-4 12-2 15 3 4 5 2 12-3 15-5 4-12 2-15-3z"/>
  <path d="m3135 4279c-5-7-1-18 11-26 24-17 33 2 11 24-11 12-16 12-22 2z"/>
  <path d="m12172 4281c2-7 7-12 11-12 12 1 9 15-3 20-7 2-11-2-8-8z"/>
  <path d="m1350 4254c0-5 7-19 15-30 8-10 15-14 15-8 0 5-7 19-15 30-8 10-15 14-15 8z"/>
  <path d="m11555 4191c-3-5-1-12 5-16 12-7 30 2 30 16 0 12-27 12-35 0z"/>
  <path d="m1555 4169c17-6 38-18 48-27 9-8 19-13 22-10 8 8-39 36-71 43l-29 5z"/>
  <path d="m4024 4162c-58-32-77-50-71-66 5-14 17-18 47-18 3-1 24 2 48 6 40 6 42 5 42-19 0-28 12-32 29-11 7 8 22 11 38 8 18-3 24-1 19 7-4 6-14 11-21 11-8 0-12 6-9 14 7 19-34 46-70 46-28 0-29 0-11 20 23 25 3 27-41 2z"/>
  <path d="m3784 4141c10-16 62-29 77-20 12 8 12 11-1 19-19 12-83 13-76 1z"/>
  <path d="m11530 4140c0-5 7-10 15-10s15 5 15 10c0 6-7 10-15 10s-15-4-15-10z"/>
  <path d="m11490 4110c0-5 5-10 10-10 6 0 10 5 10 10 0 6-4 10-10 10-5 0-10-4-10-10z"/>
  <path d="m11445 4070c-3-5 1-10 9-10 9 0 16 5 16 10 0 6-4 10-9 10-6 0-13-4-16-10z"/>
  <path d="m4035 4060c-3-5 1-10 9-10 9 0 16 5 16 10 0 6-4 10-9 10-6 0-13-4-16-10z"/>
  <path d="m11355 4031c-7-12 12-24 25-16 11 7 4 25-10 25-5 0-11-4-15-9z"/>
  <path d="m11307 4004c-13-13-7-24 14-24 11 0 19 5 17 12-5 14-22 21-31 12z"/>
  <path d="m11077 3993c-4-3-7-16-7-29 0-15-8-24-25-28-27-7-30-17-15-47 11-20 50-27 50-9 0 6 8 10 19 10 10 0 41 10 70 21 51 22 69 49 31 49-12 0-38 9-60 20-42 21-53 24-63 13z"/>
  <path d="m11255 3970c3-5 10-10 16-10 5 0 9 5 9 10 0 6-7 10-16 10-8 0-12-4-9-10z"/>
  <path d="m11240 3930c0-5 7-10 15-10s15 5 15 10c0 6-7 10-15 10s-15-4-15-10z"/>
  <path d="m6365 3901c-7-12 12-24 25-16 11 7 4 25-10 25-5 0-11-4-15-9z"/>
  <path d="m11021 3828c-5-13-10-32-12-43-3-13-12-20-29-20-20-1-24-5-22-23 3-22-5-26-42-22-10 1-26-7-36-18-10-10-44-24-76-31-33-6-74-20-92-31-22-14-41-18-58-14-24 6-25 5-15-14 6-12 16-24 21-27 6-3 10-19 10-35 0-52 32-50 67 5 17 25 31 35 54 37 33 3 54 28 25 28-9 0-16 4-16 10 0 12 29 2 52-18 15-13 21-13 52 2 19 9 56 16 83 16h48l23 65c13 36 28 67 33 71 5 3 9 18 9 34 0 48-63 70-79 28z"/>
  <path d="m6367 3834c-14-14-7-35 11-32 9 2 17 10 17 17 0 16-18 25-28 15z"/>
  <path d="m6191 3819c-13-5-21-12-18-15 9-9 68 7 61 17-6 11-12 11-43-2z"/>
  <path d="m6110 3780c0-5 5-10 10-10 6 0 10 5 10 10 0 6-4 10-10 10-5 0-10-4-10-10z"/>
  <path d="m6525 3741c-6-11 60-35 74-26 6 3 8 12 4 20-6 17-68 21-78 6z"/>
  <path d="m6776 3741c-4-5-2-12 3-15 5-4 12-2 15 3 4 5 2 12-3 15-5 4-12 2-15-3z"/>
  <path d="m6470 3700c0-5 4-10 9-10 6 0 13 5 16 10 3 6-1 10-9 10-9 0-16-4-16-10z"/>
  <path d="m6990 3700c0-5 7-10 15-10s15 5 15 10c0 6-7 10-15 10s-15-4-15-10z"/>
  <path d="m6920 3690c0-5 4-10 9-10 6 0 13 5 16 10 3 6-1 10-9 10-9 0-16-4-16-10z"/>
  <path d="m6540 3660c0-5 7-10 15-10s15 5 15 10c0 6-7 10-15 10s-15-4-15-10z"/>
  <path d="m7210 3660c0-5 11-10 24-10 14 0 28 5 31 10 4 6-7 10-24 10s-31-4-31-10z"/>
  <path d="m6480 3650c0-5 7-10 15-10s15 5 15 10c0 6-7 10-15 10s-15-4-15-10z"/>
  <path d="m10545 3590c-3-5 1-10 9-10 9 0 16 5 16 10 0 6-4 10-9 10-6 0-13-4-16-10z"/>
  <path d="m3730 3570c0-5 7-10 16-10 8 0 12 5 9 10-3 6-10 10-16 10-5 0-9-4-9-10z"/>
  <path d="m5440 3560c0-5 7-10 16-10 8 0 12 5 9 10-3 6-10 10-16 10-5 0-9-4-9-10z"/>
  <path d="m10600 3560c0-5 7-10 15-10s15 5 15 10c0 6-7 10-15 10s-15-4-15-10z"/>
  <path d="m5410 3430c0-5 4-10 9-10 6 0 13 5 16 10 3 6-1 10-9 10-9 0-16-4-16-10z"/>
  <path d="m5540 3420c0-5 7-10 15-10s15 5 15 10c0 6-7 10-15 10s-15-4-15-10z"/>
  <path d="m10645 3420c3-5 10-10 16-10 5 0 9 5 9 10 0 6-7 10-16 10-8 0-12-4-9-10z"/>
  <path d="m5470 3410c0-5 4-10 9-10 6 0 13 5 16 10 3 6-1 10-9 10-9 0-16-4-16-10z"/>
  <path d="m3250 3390c0-5 7-10 15-10s15 5 15 10c0 6-7 10-15 10s-15-4-15-10z"/>
  <path d="m5410 3390c0-5 7-10 15-10s15 5 15 10c0 6-7 10-15 10s-15-4-15-10z"/>
  <path d="m3310 3380c0-5 5-10 10-10 6 0 10 5 10 10 0 6-4 10-10 10-5 0-10-4-10-10z"/>
  <path d="m10583 3383c-17-6-16-33 1-33s38 24 29 33c-7 8-12 8-30 0z"/>
  <path d="m7980 3350c0-5 5-10 10-10 6 0 10 5 10 10 0 6-4 10-10 10-5 0-10-4-10-10z"/>
  <path d="m3250 3340c0-5 7-10 15-10s15 5 15 10c0 6-7 10-15 10s-15-4-15-10z"/>
  <path d="m3320 3340c0-5 7-10 15-10s15 5 15 10c0 6-7 10-15 10s-15-4-15-10z"/>
  <path d="m10500 3320c0-5 7-10 15-10s15 5 15 10c0 6-7 10-15 10s-15-4-15-10z"/>
  <path d="m3280 3310c0-5 7-10 16-10 8 0 12 5 9 10-3 6-10 10-16 10-5 0-9-4-9-10z"/>
  <path d="m3350 3310c0-5 7-10 15-10s15 5 15 10c0 6-7 10-15 10s-15-4-15-10z"/>
  <path d="m10346 3297c-15-22-16-33-8-50 10-22 10-22 21 7 7 16 11 39 9 50-3 19-5 19-22-7z"/>
  <path d="m10445 3310c-3-5 1-10 9-10 9 0 16 5 16 10 0 6-4 10-9 10-6 0-13-4-16-10z"/>
  <path d="m3324 3278c-3-4 1-8 8-8s23-3 36-6c12-4 22-2 22 4 0 12-59 22-66 10z"/>
  <path d="m3082 3259c-24-9-22-29 4-29 8 0 17-7 20-15 9-23 26-18 19 5-8 25-12 25 85-6 45-14 84-32 87-40 8-22 103-17 103 6 0 18-216 90-265 89-16 0-40-4-53-10z"/>
  <path d="m3426 3251c-4-5-2-12 3-15 5-4 12-2 15 3 4 5 2 12-3 15-5 4-12 2-15-3z"/>
  <path d="m396 3241c-4-5-2-12 3-15 5-4 12-2 15 3 4 5 2 12-3 15-5 4-12 2-15-3z"/>
  <path d="m3486 3241c-4-5-2-12 3-15 5-4 12-2 15 3 4 5 2 12-3 15-5 4-12 2-15-3z"/>
  <path d="m440 3220c-12-8-12-10 2-15 20-8 41 2 33 16-8 11-16 11-35-1z"/>
  <path d="m3455 3200c3-5 10-10 16-10 5 0 9 5 9 10 0 6-7 10-16 10-8 0-12-4-9-10z"/>
  <path d="m514 3184c3-9 6-22 6-30 0-14 35-20 43-6 7 10-28 52-43 52-7 0-10-7-6-16z"/>
  <path d="m9929 3154c-11-14-10-16 9-12 13 1 23 7 23 13 1 17-17 16-32-1z"/>
  <path d="m3456 3135c-18-13-17-14 5-20 13-3 56-2 94 3l70 8-40 12c-53 16-106 15-129-3z"/>
  <path d="m3670 3120c0-5 9-10 20-10s20 5 20 10c0 6-9 10-20 10s-20-4-20-10z"/>
  <path d="m3260 3110c0-5 14-10 30-10 17 0 30 5 30 10 0 6-13 10-30 10-16 0-30-4-30-10z"/>
  <path d="m10334 3093c-3-16-8-34-10-42-6-19 23-61 42-61 27 0 75-34 80-57 6-23 24-32 24-12 0 6 7 9 15 5 28-10 15 4-50 55-36 28-65 55-65 60s9 18 21 30c16 16 18 23 8 35-6 8-22 14-35 14-18 0-25-7-30-27z"/>
  <path d="m3740 3100c0-5 7-10 15-10s15 5 15 10c0 6-7 10-15 10s-15-4-15-10z"/>
  <path d="m3020 3090c0-5 7-10 16-10 8 0 12 5 9 10-3 6-10 10-16 10-5 0-9-4-9-10z"/>
  <path d="m3800 3090c0-5 7-10 15-10s15 5 15 10c0 6-7 10-15 10s-15-4-15-10z"/>
  <path d="m3860 3080c0-5 7-10 15-10s15 5 15 10c0 6-7 10-15 10s-15-4-15-10z"/>
  <path d="m5150 3060c0-5 7-10 16-10 8 0 12 5 9 10-3 6-10 10-16 10-5 0-9-4-9-10z"/>
  <path d="m5235 3050c-3-5 1-10 9-10 9 0 16 5 16 10 0 6-4 10-9 10-6 0-13-4-16-10z"/>
  <path d="m3860 3040c0-5 7-10 16-10 8 0 12 5 9 10-3 6-10 10-16 10-5 0-9-4-9-10z"/>
  <path d="m11225 3030c-3-5 1-10 9-10 9 0 16 5 16 10 0 6-4 10-9 10-6 0-13-4-16-10z"/>
  <path d="m11995 3020c-3-5 1-10 9-10 9 0 16 5 16 10 0 6-4 10-9 10-6 0-13-4-16-10z"/>
  <path d="m5182 3011c4-13 18-16 19-4 0 4-5 9-11 12-7 2-11-2-8-8z"/>
  <path d="m5235 3010c-3-5 3-10 15-10s18 5 15 10c-3 6-10 10-15 10s-12-4-15-10z"/>
  <path d="m3869 2984c-10-28-5-44 10-28 5 5 12 19 16 32 9 32-13 28-26-4z"/>
  <path d="m10476 3001c-4-5-2-12 3-15 5-4 12-2 15 3 4 5 2 12-3 15-5 4-12 2-15-3z"/>
  <path d="m11186 2991c-4-5-2-12 3-15 5-4 12-2 15 3 4 5 2 12-3 15-5 4-12 2-15-3z"/>
  <path d="m3936 2961c-4-5-2-12 3-15 5-4 12-2 15 3 4 5 2 12-3 15-5 4-12 2-15-3z"/>
  <path d="m10340 2944c0-9 5-14 12-12 18 6 21 28 4 28-9 0-16-7-16-16z"/>
  <path d="m3615 2940c4-6 11-8 16-5 14 9 11 15-7 15-8 0-12-5-9-10z"/>
  <path d="m9325 2940c3-5 10-10 16-10 5 0 9 5 9 10 0 6-7 10-16 10-8 0-12-4-9-10z"/>
  <path d="m3670 2930c0-5 4-10 9-10 6 0 13 5 16 10 3 6-1 10-9 10-9 0-16-4-16-10z"/>
  <path d="m7950 2930c0-5 4-10 9-10 6 0 13 5 16 10 3 6-1 10-9 10-9 0-16-4-16-10z"/>
  <path d="m3845 2920c3-5 10-10 16-10 5 0 9 5 9 10 0 6-7 10-16 10-8 0-12-4-9-10z"/>
  <path d="m10300 2920c0-5 4-10 9-10 6 0 13 5 16 10 3 6-1 10-9 10-9 0-16-4-16-10z"/>
  <path d="m9325 2900c3-5 10-10 16-10 5 0 9 5 9 10 0 6-7 10-16 10-8 0-12-4-9-10z"/>
  <path d="m10385 2900c3-5 10-10 16-10 5 0 9 5 9 10 0 6-7 10-16 10-8 0-12-4-9-10z"/>
  <path d="m3890 2890c0-5 4-10 9-10 6 0 13 5 16 10 3 6-1 10-9 10-9 0-16-4-16-10z"/>
  <path d="m3496 2875c4-8 8-15 10-15s4 7 4 15-4 15-10 15c-5 0-7-7-4-15z"/>
  <path d="m10250 2861c-12-17-17-31-11-31 13 0 46 48 38 56-2 3-15-9-27-25z"/>
  <path d="m10515 2870c3-5 10-10 16-10 5 0 9 5 9 10 0 6-7 10-16 10-8 0-12-4-9-10z"/>
  <path d="m9720 2860c0-5 4-10 9-10 6 0 13 5 16 10 3 6-1 10-9 10-9 0-16-4-16-10z"/>
  <path d="m11500 2830c0-5 7-10 15-10s15 5 15 10c0 6-7 10-15 10s-15-4-15-10z"/>
  <path d="m12110 2830c0-5 7-10 15-10s15 5 15 10c0 6-7 10-15 10s-15-4-15-10z"/>
  <path d="m8891 2808c-9-23 2-58 17-58 5 0 17 6 27 14 18 13 18 15 2 40-21 32-35 33-46 4z"/>
  <path d="m10472 2820c-12-5-28-7-35-4-7 2-22-5-33-17l-19-22 29 7c24 6 33 3 47-15 22-29 66-20 75 16 11 42-12 55-64 35z"/>
  <path d="m8630 2810c0-5 7-10 15-10s15 5 15 10c0 6-7 10-15 10s-15-4-15-10z"/>
  <path d="m11400 2810c0-5 7-10 15-10s15 5 15 10c0 6-7 10-15 10s-15-4-15-10z"/>
  <path d="m11460 2800c0-5 7-10 16-10 8 0 12 5 9 10-3 6-10 10-16 10-5 0-9-4-9-10z"/>
  <path d="m8630 2770c0-5 7-10 16-10 8 0 12 5 9 10-3 6-10 10-16 10-5 0-9-4-9-10z"/>
  <path d="m10824 2766c-4-10-2-22 4-28 8-8 13-7 18 6 4 10 2 22-4 28-8 8-13 7-18-6z"/>
  <path d="m9370 2760c0-5 7-10 16-10 8 0 12 5 9 10-3 6-10 10-16 10-5 0-9-4-9-10z"/>
  <path d="m11055 2760c-3-5 1-10 9-10 9 0 16 5 16 10 0 6-4 10-9 10-6 0-13-4-16-10z"/>
  <path d="m11300 2760c0-5 7-10 16-10 8 0 12 5 9 10-3 6-10 10-16 10-5 0-9-4-9-10z"/>
  <path d="m10149 2721c-55-39-138-88-197-116-39-19-37-37 10-97 34-43 75-58 161-58 56 0 57 0 57 29 0 27 28 69 71 108 13 12 14 20 5 39-6 13-19 24-28 24-27 0-21 17 12 37 36 21 35 28-6 53l-31 20z"/>
  <path d="m10330 2740c0-5 7-10 16-10 8 0 12 5 9 10-3 6-10 10-16 10-5 0-9-4-9-10z"/>
  <path d="m11245 2740c-3-5 1-10 10-10s13 5 10 10c-3 6-8 10-10 10s-7-4-10-10z"/>
  <path d="m8645 2731c-6-11 9-23 19-14 9 9 7 23-3 23-6 0-12-4-16-9z"/>
  <path d="m11835 2721c-6-11 9-23 19-14 9 9 7 23-3 23-6 0-12-4-16-9z"/>
  <path d="m9500 2668c30-30 80-85 110-122 53-65 142-146 161-146 12 0 50 80 43 91-3 5-16 9-30 9s-39 15-62 38c-60 60-187 159-213 167-13 3-33 9-44 12-13 3 0-15 35-49z"/>
  <path d="m8630 2680c0-5 4-10 9-10 6 0 13 5 16 10 3 6-1 10-9 10-9 0-16-4-16-10z"/>
  <path d="m9880 2670c0-5 4-10 9-10 6 0 13 5 16 10 3 6-1 10-9 10-9 0-16-4-16-10z"/>
  <path d="m6325 2660c3-5 10-10 16-10 5 0 9 5 9 10 0 6-7 10-16 10-8 0-12-4-9-10z"/>
  <path d="m9440 2640c0-5 7-10 15-10s15 5 15 10c0 6-7 10-15 10s-15-4-15-10z"/>
  <path d="m10600 2640c0-5 7-10 15-10s15 5 15 10c0 6-7 10-15 10s-15-4-15-10z"/>
  <path d="m6295 2620c3-5 10-10 16-10 5 0 9 5 9 10 0 6-7 10-16 10-8 0-12-4-9-10z"/>
  <path d="m2810 2600c0-5 7-10 15-10s15 5 15 10c0 6-7 10-15 10s-15-4-15-10z"/>
  <path d="m9500 2590c0-5 7-10 15-10s15 5 15 10c0 6-7 10-15 10s-15-4-15-10z"/>
  <path d="m10584 2585c-4-8-3-23 1-32 6-17 7-17 21 1 8 11 14 26 14 33 0 18-29 16-36-2z"/>
  <path d="m12140 2590c0-5 7-10 15-10s15 5 15 10c0 6-7 10-15 10s-15-4-15-10z"/>
  <path d="m6250 2580c0-5 7-10 15-10s15 5 15 10c0 6-7 10-15 10s-15-4-15-10z"/>
  <path d="m10321 2573c-23-20-43-103-30-125 5-7 9-23 9-34 0-12 7-28 17-35 15-13 16-11 9 24-8 40-1 77 14 77 5 0 19-18 30-40s25-40 30-40c21 0 8 46-22 77-33 35-31 38 27 46 18 2 9 5-22 6-53 1-74 14-54 34 5 5 41 13 78 17l68 7-66 2c-50 1-72-3-88-16z"/>
  <path d="m10660 2560c0-5 7-10 15-10s15 5 15 10c0 6-7 10-15 10s-15-4-15-10z"/>
  <path d="m2755 2549c-10-15 1-23 20-15 9 3 13 10 10 16-8 13-22 13-30-1z"/>
  <path d="m2815 2550c-3-5 1-10 9-10 9 0 16 5 16 10 0 6-4 10-9 10-6 0-13-4-16-10z"/>
  <path d="m11950 2550c0-5 7-10 15-10s15 5 15 10c0 6-7 10-15 10s-15-4-15-10z"/>
  <path d="m2870 2540c0-5 7-10 15-10s15 5 15 10c0 6-7 10-15 10s-15-4-15-10z"/>
  <path d="m10734 2525c11-8 28-15 38-15 22 0 23-8 3-30-14-16-12-18 34-23 52-6 138-44 161-71 11-14 10-19-4-35-16-17-15-19 16-25 18-3 57-12 87-21 50-14 55-13 79 5 36 29 80 26 117-9 27-27 115-59 115-42 0 3-16 16-36 29-19 13-42 39-50 57-16 40-48 58-178 104-146 51-172 55-212 30-32-20-36-20-59-5-14 9-25 23-25 31 0 18-6 21-60 29-42 6-44 6-26-9z"/>
  <path d="m12170 2530c0-5 7-10 16-10 8 0 12 5 9 10-3 6-10 10-16 10-5 0-9-4-9-10z"/>
  <path d="m9560 2520c0-5 7-10 16-10 8 0 12 5 9 10-3 6-10 10-16 10-5 0-9-4-9-10z"/>
  <path d="m10660 2516c0-9 7-16 16-16s14 5 12 12c-6 18-28 21-28 4z"/>
  <path d="m10865 2520c-3-5 1-10 9-10 9 0 16 5 16 10 0 6-4 10-9 10-6 0-13-4-16-10z"/>
  <path d="m11095 2520c-3-5 1-10 9-10 9 0 16 5 16 10 0 6-4 10-9 10-6 0-13-4-16-10z"/>
  <path d="m11370 2520c0-5 7-10 15-10s15 5 15 10c0 6-7 10-15 10s-15-4-15-10z"/>
  <path d="m6225 2510c-3-5 1-10 9-10 9 0 16 5 16 10 0 6-4 10-9 10-6 0-13-4-16-10z"/>
  <path d="m9890 2510c0-5 7-10 16-10 8 0 12 5 9 10-3 6-10 10-16 10-5 0-9-4-9-10z"/>
  <path d="m11255 2510c-3-5 1-10 9-10 9 0 16 5 16 10 0 6-4 10-9 10-6 0-13-4-16-10z"/>
  <path d="m10475 2500c-3-5 1-10 10-10s13 5 10 10c-3 6-8 10-10 10s-7-4-10-10z"/>
  <path d="m10530 2500c0-5 7-10 16-10 8 0 12 5 9 10-3 6-10 10-16 10-5 0-9-4-9-10z"/>
  <path d="m12215 2500c-3-5 1-10 10-10s13 5 10 10c-3 6-8 10-10 10s-7-4-10-10z"/>
  <path d="m12272 2491c4-13 18-16 19-4 0 4-5 9-11 12-7 2-11-2-8-8z"/>
  <path d="m9865 2480c-3-5 1-10 10-10s13 5 10 10c-3 6-8 10-10 10s-7-4-10-10z"/>
  <path d="m9600 2471c0-5 5-13 10-16 6-3 10-2 10 4 0 5-4 13-10 16-5 3-10 2-10-4z"/>
  <path d="m10607 2474c-11-12 3-24 28-24 32 0 56 10 49 21-6 10-67 12-77 3z"/>
  <path d="m11460 2472c0-15 24-32 44-32 18 0 19 1 1 20-18 20-45 27-45 12z"/>
  <path d="m10536 2461c-4-5-2-12 3-15 5-4 12-2 15 3 4 5 2 12-3 15-5 4-12 2-15-3z"/>
  <path d="m8026 2441c-4-5-2-12 3-15 5-4 12-2 15 3 4 5 2 12-3 15-5 4-12 2-15-3z"/>
  <path d="m11387 2423c-40-17-44-36-10-41 13-2 35 9 55 27 28 26 30 30 13 30-11-1-37-8-58-16z"/>
  <path d="m7485 2410c3-5 10-10 16-10 5 0 9 5 9 10 0 6-7 10-16 10-8 0-12-4-9-10z"/>
  <path d="m10760 2400c0-5 7-10 15-10s15 5 15 10c0 6-7 10-15 10s-15-4-15-10z"/>
  <path d="m11300 2400c0-5 4-10 9-10 6 0 13 5 16 10 3 6-1 10-9 10-9 0-16-4-16-10z"/>
  <path d="m10460 2390c0-5 4-10 9-10 6 0 13 5 16 10 3 6-1 10-9 10-9 0-16-4-16-10z"/>
  <path d="m10820 2390c0-5 4-10 9-10 6 0 13 5 16 10 3 6-1 10-9 10-9 0-16-4-16-10z"/>
  <path d="m11545 2390c3-5 10-10 16-10 5 0 9 5 9 10 0 6-7 10-16 10-8 0-12-4-9-10z"/>
  <path d="m7950 2380c0-5 4-10 9-10 6 0 13 5 16 10 3 6-1 10-9 10-9 0-16-4-16-10z"/>
  <path d="m7470 2370c0-5 4-10 9-10 6 0 13 5 16 10 3 6-1 10-9 10-9 0-16-4-16-10z"/>
  <path d="m9810 2371c0-17 35-28 154-45 60-9 112-19 116-21 5-3 11-1 15 4 10 18-54 42-136 51-44 5-95 12-114 16-23 4-35 2-35-5z"/>
  <path d="m11600 2370c0-5 7-10 15-10s15 5 15 10c0 6-7 10-15 10s-15-4-15-10z"/>
  <path d="m10080 2360c0-5 9-10 20-10s20 5 20 10c0 6-9 10-20 10s-20-4-20-10z"/>
  <path d="m10150 2360c0-5 7-10 15-10s15 5 15 10c0 6-7 10-15 10s-15-4-15-10z"/>
  <path d="m12280 2360c0-5 7-10 15-10s15 5 15 10c0 6-7 10-15 10s-15-4-15-10z"/>
  <path d="m10370 2350c0-5 7-10 15-10s15 5 15 10c0 6-7 10-15 10s-15-4-15-10z"/>
  <path d="m11660 2350c0-5 9-10 20-10s20 5 20 10c0 6-9 10-20 10s-20-4-20-10z"/>
  <path d="m10570 2340c0-5 7-10 15-10s15 5 15 10c0 6-7 10-15 10s-15-4-15-10z"/>
  <path d="m10690 2330c0-5 9-10 20-10s20 5 20 10c0 6-9 10-20 10s-20-4-20-10z"/>
  <path d="m11620 2330c0-5 5-10 10-10 6 0 10 5 10 10 0 6-4 10-10 10-5 0-10-4-10-10z"/>
  <path d="m12360 2330c0-5 5-10 10-10 6 0 10 5 10 10 0 6-4 10-10 10-5 0-10-4-10-10z"/>
  <path d="m7480 2320c0-5 7-10 15-10s15 5 15 10c0 6-7 10-15 10s-15-4-15-10z"/>
  <path d="m10630 2320c0-5 7-10 15-10s15 5 15 10c0 6-7 10-15 10s-15-4-15-10z"/>
  <path d="m11730 2321c0-12 29-23 41-15 5 3 7 10 4 15-8 12-45 12-45 0z"/>
  <path d="m10140 2310c0-5 7-10 16-10 8 0 12 5 9 10-3 6-10 10-16 10-5 0-9-4-9-10z"/>
  <path d="m10430 2310c0-5 5-10 10-10 6 0 10 5 10 10 0 6-4 10-10 10-5 0-10-4-10-10z"/>
  <path d="m10486 2297c-40-23-58-47-34-47 22 0 118 48 118 60 0 17-43 11-84-13z"/>
  <path d="m10195 2300c-4-6 8-10 30-10s34 4 30 10c-3 6-17 10-30 10s-27-4-30-10z"/>
  <path d="m10310 2301c0-13 27-21 45-15 25 10 17 24-15 24-16 0-30-4-30-9z"/>
  <path d="m11705 2290c-3-5 1-10 9-10 9 0 16 5 16 10 0 6-4 10-9 10-6 0-13-4-16-10z"/>
  <path d="m10280 2270c0-5 7-10 15-10s15 5 15 10c0 6-7 10-15 10s-15-4-15-10z"/>
  <path d="m10370 2260c0-5 7-10 16-10 8 0 12 5 9 10-3 6-10 10-16 10-5 0-9-4-9-10z"/>
  <path d="m11775 2260c-3-5 1-10 9-10 9 0 16 5 16 10 0 6-4 10-9 10-6 0-13-4-16-10z"/>
  <path d="m11460 2240c0-5 7-10 16-10 8 0 12 5 9 10-3 6-10 10-16 10-5 0-9-4-9-10z"/>
  <path d="m11720 2230c0-5 7-10 16-10 8 0 12 5 9 10-3 6-10 10-16 10-5 0-9-4-9-10z"/>
  <path d="m10705 2184c-23-26-39-52-38-64 2-17-3-20-32-20-19 0-52 7-73 15-38 15-40 15-81-12-23-15-39-33-37-40 7-18-11-26-34-13-18 9-20 8-20-15 0-33-50-65-153-99-97-32-156-62-164-82-3-9 4-29 16-45 13-17 20-37 17-46-6-14-9-14-26 2-28 25-25 6 5-35 33-44 65-131 68-183 2-33 7-44 27-54 34-17 65-16 101 3 17 8 58 20 91 25s78 19 100 30c21 11 77 25 124 31 114 14 180 0 236-50l40-36 29 32c16 18 33 32 39 32 13 0 13-26-1-52-10-19-9-20 10-15 16 4 24 0 31-16 5-12 27-42 50-66l42-44 61 6c45 4 68 1 87-10 24-14 29-13 64 11 22 14 49 26 62 26 14 0 24 6 24 14s18 48 40 90c44 82 64 147 75 242l7 62-38 12c-23 8-61 36-95 72-32 32-62 58-68 58-20 0-64 71-72 117-6 29-20 59-37 78-16 16-34 43-41 60l-13 30-16-30c-8-16-19-48-24-70s-20-59-34-82l-25-43-55 25c-71 31-114 62-114 82 0 9 9 31 21 49 11 19 18 35 15 35-3 1-9 2-13 4-32 8-64 14-98 18-37 5-43 2-80-39z"/>
  <path d="m7576 2211c-4-5-2-12 3-15 5-4 12-2 15 3 4 5 2 12-3 15-5 4-12 2-15-3z"/>
  <path d="m7616 2192c-3-6-1-14 5-17 15-10 25 3 12 16-7 7-13 7-17 1z"/>
  <path d="m7791 2168c-11-30-30-46-100-83l-56-30-3-54c-2-30-10-64-18-75-20-29-18-65 7-105 18-30 23-33 56-28 20 4 42 12 48 19 7 7 34 77 60 155 37 110 46 150 41 177-8 44-23 54-35 24z"/>
  <path d="m7660 2150c0-5 4-10 9-10 6 0 13 5 16 10 3 6-1 10-9 10-9 0-16-4-16-10z"/>
  <path d="m10905 2150c3-5 10-10 16-10 5 0 9 5 9 10 0 6-7 10-16 10-8 0-12-4-9-10z"/>
  <path d="m12706 2141c14-13 62-22 68-12 3 5-8 11-25 15-44 8-55 8-43-3z"/>
  <path d="m11935 2100c3-5 10-10 16-10 5 0 9 5 9 10 0 6-7 10-16 10-8 0-12-4-9-10z"/>
  <path d="m7980 2070c0-5 5-10 10-10 6 0 10 5 10 10 0 6-4 10-10 10-5 0-10-4-10-10z"/>
  <path d="m11950 2060c0-5 7-10 15-10s15 5 15 10c0 6-7 10-15 10s-15-4-15-10z"/>
  <path d="m12390 2060c0-5 5-10 10-10 6 0 10 5 10 10 0 6-4 10-10 10-5 0-10-4-10-10z"/>
  <path d="m11990 2040c0-5 7-10 15-10s15 5 15 10c0 6-7 10-15 10s-15-4-15-10z"/>
  <path d="m740 2030c0-5 7-10 15-10s15 5 15 10c0 6-7 10-15 10s-15-4-15-10z"/>
  <path d="m12340 2030c0-5 7-10 15-10s15 5 15 10c0 6-7 10-15 10s-15-4-15-10z"/>
  <path d="m785 2010c-3-5 1-10 9-10 9 0 16 5 16 10 0 6-4 10-9 10-6 0-13-4-16-10z"/>
  <path d="m12605 1960c-3-5 1-10 10-10s13 5 10 10c-3 6-8 10-10 10s-7-4-10-10z"/>
  <path d="m1196 1941c-4-5-2-12 3-15 5-4 12-2 15 3 4 5 2 12-3 15-5 4-12 2-15-3z"/>
  <path d="m8086 1941c-4-5-2-12 3-15 5-4 12-2 15 3 4 5 2 12-3 15-5 4-12 2-15-3z"/>
  <path d="m11885 1940c-7-11 35-40 57-40 36 0 14 32-29 43-13 3-25 1-28-3z"/>
  <path d="m8026 1931c-4-5-2-12 3-15 5-4 12-2 15 3 4 5 2 12-3 15-5 4-12 2-15-3z"/>
  <path d="m12565 1929c-10-15 3-25 16-12 7 7 7 13 1 17-6 3-14 1-17-5z"/>
  <path d="m1046 1922c-3-6-1-14 5-17 15-10 25 3 12 16-7 7-13 7-17 1z"/>
  <path d="m1275 1870c3-5 10-10 16-10 5 0 9 5 9 10 0 6-7 10-16 10-8 0-12-4-9-10z"/>
  <path d="m1480 1830c0-5 7-10 15-10s15 5 15 10c0 6-7 10-15 10s-15-4-15-10z"/>
  <path d="m1610 1810c0-5 7-10 15-10s15 5 15 10c0 6-7 10-15 10s-15-4-15-10z"/>
  <path d="m2320 1770c0-5 7-10 15-10s15 5 15 10c0 6-7 10-15 10s-15-4-15-10z"/>
  <path d="m2150 1750c0-5 5-10 10-10 6 0 10 5 10 10 0 6-4 10-10 10-5 0-10-4-10-10z"/>
  <path d="m3220 1520c0-5 7-10 15-10s15 5 15 10c0 6-7 10-15 10s-15-4-15-10z"/>
  <path d="m12180 1484c0-6 9-19 19-28 11-10 25-31 31-47 10-24 10-33-4-54-16-24-16-26 9-35 14-5 25-16 25-25 0-25 25-17 43 15 10 17 25 30 33 30s14 4 14 9 3 17 7 26c5 14 2 16-16 10-15-4-23-2-27 10-4 9-15 15-28 13-14-2-35 12-63 42-24 25-43 40-43 34z"/>
  <path d="m10895 1460c-3-5 1-10 10-10s13 5 10 10c-3 6-8 10-10 10s-7-4-10-10z"/>
  <path d="m11280 1320c0-5 7-10 15-10s15 5 15 10c0 6-7 10-15 10s-15-4-15-10z"/>
  <path d="m11150 1310c0-5 7-10 15-10s15 5 15 10c0 6-7 10-15 10s-15-4-15-10z"/>
  <path d="m11200 1267c0-53 93-82 106-33 3 14 3 30-1 35-9 16-105 14-105-2z"/>
  <path d="m12170 1272c-9-4-34-24-55-44-22-21-64-59-94-86l-54-49 56-7c66-9 72-6 91 37 8 18 35 54 60 81 36 38 43 52 35 63-13 14-17 15-39 5z"/>
  <path d="m3375 1240c-3-6 1-13 10-16 19-8 30 0 20 15-8 14-22 14-30 1z"/>
  <path d="m12010 1050c0-5 4-10 9-10 6 0 13 5 16 10 3 6-1 10-9 10-9 0-16-4-16-10z"/>
  <path d="m3350 1040c0-5 7-10 15-10s15 5 15 10c0 6-7 10-15 10s-15-4-15-10z"/>
  <path d="m8480 1005c0-23 38-39 56-24 13 11 12 14-8 25-31 18-48 17-48-1z"/>
  <path d="m3350 990c0-5 7-10 15-10s15 5 15 10c0 6-7 10-15 10s-15-4-15-10z"/>
  <path d="m11920 960c0-5 7-10 15-10s15 5 15 10c0 6-7 10-15 10s-15-4-15-10z"/>
  <path d="m3350 940c0-5 7-10 16-10 8 0 12 5 9 10-3 6-10 10-16 10-5 0-9-4-9-10z"/>
  <path d="m3941 908c-5-13-6-27-3-32 6-11 32 22 32 41 0 21-20 15-29-9z"/>
  <path d="m3874 909c-3-6-2-15 2-19 12-12 38 5 30 19-9 14-23 14-32 0z"/>
  <path d="m3402 873c-9-4-4-13 14-30 30-27 36-27 28 4-6 23-22 33-42 26z"/>
  <path d="m3566 830c-4-24-11-30-33-31-16 0 5-8 45-16 112-23 122 7 21 62-26 14-27 13-33-15z"/>
  <path d="m8645 850c3-5 10-10 16-10 5 0 9 5 9 10 0 6-7 10-16 10-8 0-12-4-9-10z"/>
  <path d="m4694 805c21-16 76-20 76-6 0 10-35 21-70 21-24-1-24-1-6-15z"/>
  <path d="m3730 790c0-5 5-10 10-10 6 0 10 5 10 10 0 6-4 10-10 10-5 0-10-4-10-10z"/>
  <path d="m3550 751c0-5 6-11 13-13 17-7 38 2 31 13-7 12-44 12-44 0z"/>
 </g>
</svg>
