<svg version="1.1" viewBox="0 0 200 31.706" xmlns="http://www.w3.org/2000/svg">
 <rect width="200" height="31.706" fill="none" stroke-width=".41244"/>
 <g transform="matrix(.7436 0 0 .7436 5.345 -7.4332)" fill="#d4aa00">
  <g transform="matrix(.10664 0 0 .10664 65.883 12.84)">
   <path d="m179.77 88.101c-2.6036-0.95175-6-4.5727-6-6.3967 0-2.8418 2.8735-4.8982 6.8214-4.8818 4.7935 0.01995 5.8548 0.84652 5.7582 4.4847-0.0625 2.3544 0.39098 3.067 2.1072 3.3113 2.6746 0.38071 4.5634-2.3251 6.6741-9.5613 1.509-5.1735 1.1715-6.3824-1.1373-4.0735-1.8608 1.8608-10.422 1.5761-13.516-0.44951-2.3939-1.5674-2.708-2.403-2.708-7.2029 0-8.1411 3.5983-15.182 9.3288-18.254 2.4222-1.2985 5.7823-1.7083 14.227-1.7349l11.056-0.03486-2.2672 12.748c-3.9022 21.941-6.4354 28.143-12.712 31.122-3.3297 1.5801-14.27 2.1533-17.633 0.9239zm15.24-22.044c1.3554-1.5306 4.7603-15.018 4.7603-18.857 0-2.1597-3.4246-1.6437-5.6872 0.85696-2.7327 3.0202-4.3128 8.0516-4.3128 13.733 0 6.3349 1.9805 7.9479 5.2397 4.2674zm259.73 22c-0.018-0.4125 1.8644-10.538 4.183-22.5l4.2157-21.75h3.2352c1.7793 0 3.947-0.27314 4.817-0.60699 1.1442-0.43908 1.5818-0.0041 1.5818 1.5726v2.1796l2.6349-2.0726c3.091-2.4314 6.1328-2.6143 10.831-0.65136 4.3141 1.8026 6.5343 6.0705 6.5343 12.561 0 12.08-7.2804 20.046-18.614 20.367l-5.3308 0.15098-1.0727 5.1265c-1.0201 4.8751-1.2544 5.1565-4.7774 5.739-5.0304 0.83165-8.1981 0.78723-8.2374-0.1155zm21.885-15.573c1.9908-2.3988 4.254-13.52 3.9479-19.4-0.26367-5.0656-0.5697-5.816-2.4831-6.0884-1.4113-0.20091-2.5828 0.43752-3.3157 1.807-1.0815 2.0208-5.002 20.47-5.002 23.539 0 1.8719 5.3256 1.9821 6.8528 0.14189zm208.2 15.71c0.0317-0.48822 1.9512-10.563 4.2656-22.388l4.2081-21.5 4.7344-0.54597c4.2146-0.48603 4.7344-0.33178 4.7344 1.405 0 1.8216 0.12041 1.842 1.8156 0.30784 4.4377-4.0161 13.286-2.4932 16.816 2.8941 2.5938 3.9586 2.1542 13.436-0.89825 19.369-2.8951 5.6272-8.0704 8.7652-15.941 9.6656l-5.7074 0.65298-0.65801 4.388c-0.36191 2.4134-0.99518 4.5963-1.4073 4.851-1.5585 0.96322-12.018 1.7501-11.962 0.90003zm23.149-18.388c2.078-4.2606 4.1997-17.243 3.3629-20.577-0.78733-3.137-4.0238-3.1859-6.0513-0.09148-1.1226 1.7133-5.5186 21.17-5.5186 24.425 0 0.20376 1.4625 0.22946 3.25 0.05711 2.5804-0.24879 3.6017-1.0345 4.957-3.8134zm204.85 17.888c0.032-0.76322 1.9445-10.838 4.25-22.388l4.1918-21 4.75-0.54597c4.2301-0.48621 4.75-0.33243 4.75 1.405 0 1.8216 0.1204 1.842 1.8156 0.30784 4.7045-4.2575 13.716-2.4061 16.739 3.439 2.4436 4.7253 1.5551 15.651-1.6535 20.333-3.3418 4.8771-8.8818 7.7166-15.423 7.9049l-5.4144 0.15589-0.6207 4.0846c-0.886 5.8295-1.3736 6.2722-7.7315 7.0195-4.5403 0.53362-5.6998 0.38669-5.6536-0.71638zm21.861-15.291c2.448-2.9497 5.524-19.185 4.4285-23.374-0.7198-2.7525-4.8418-3.0377-6.2366-0.43144-0.8486 1.5855-5.1115 21.817-5.1115 24.259 0 1.482 5.6188 1.1135 6.9196-0.45385zm63.08 14.652c-2.7433-1.3704-3.5667-2.4368-3.8084-4.932-0.377-3.8914 2.126-5.5788 7.6007-5.1243 3.5072 0.29119 3.7077 0.49591 3.7077 3.7857 0 4.1101 2.5239 5.2154 5.5844 2.4457 1.5951-1.4435 4.9156-9.8788 4.9156-12.487 0-0.38536-1.6875-0.09844-3.75 0.63761-5.9856 2.1361-9.0682 1.7617-12.327-1.497-3.3757-3.3757-3.4482-4.4435-1.1244-16.574l1.7235-8.9972 5.919-0.73937c3.2555-0.40665 6.0558-0.60259 6.223-0.43543s-0.6172 5.1629-1.7429 11.102c-2.1944 11.576-2.0586 13.567 0.9249 13.567 3.1247 0 4.4571-2.6633 6.6803-13.353l2.1102-10.147 5.8618-0.73654c3.2239-0.4051 5.9439-0.6301 6.0443-0.5s-1.2619 7.4854-3.0273 16.345c-4.8241 24.21-8.5999 29.393-21.413 29.39-4.2816-1e-3 -7.8323-0.61611-10.102-1.75zm-883.32-10.565c-7.1867-0.9258-7.7794-1.1757-7.3419-3.0953 0.26174-1.1485 1.9464-10.301 3.7436-20.338l3.2678-18.25h6.8432c6.58 0 6.8238 0.08656 6.3371 2.25-1.0423 4.6336-5.532 30.128-5.532 31.413 0 1.8795 6.985 1.7364 9.7492-0.19964 2.0698-1.4498 2.2304-1.3926 2.8327 1.0073 0.87723 3.4952-1.7014 7.1035-5.6392 7.891-3.564 0.71279-3.407 0.72025-14.261-0.67792zm32.411 0.01002c-5.3298-1.8675-7.3943-5.4612-7.2918-12.693 0.16447-11.6 6.5732-19.429 16.906-20.653 10.242-1.213 16.287 3.4841 16.283 12.652-3e-3 6.9811-1.8754 12.12-5.873 16.118-5.3758 5.3757-12.86 7.0861-20.024 4.5759zm11.588-7.1701c1.9412-5.6335 3.6078-17.233 2.8881-20.101-0.42967-1.7119-1.3041-2.4227-2.9804-2.4227-3.0206 0-5.2648 5.2559-6.8303 15.997-1.3367 9.171-0.77936 11.257 2.8909 10.82 2.0932-0.24929 2.9541-1.1661 4.0318-4.2935zm60.818 7.3228c-1.1-0.64642-2.3306-1.6638-2.7347-2.2608-1.2907-1.9069-0.75626-8.7912 1.5203-19.583l2.2144-10.498 5.9301-0.73898c3.2616-0.40644 6.0237-0.63254 6.1381-0.50244s-0.93439 6.2639-2.3307 13.631c-2.0792 10.97-2.3146 13.753-1.3006 15.377 0.99704 1.5965 0.97507 2.2456-0.11286 3.3335-1.9417 1.9417-6.9893 2.614-9.3242 1.2419zm23.878-0.28315c-4.8799-2.1238-6.3783-5.0906-6.3783-12.628 0-9.4264 2.7989-14.517 10.037-18.257 4.6108-2.382 6.3802-2.7604 11.347-2.4265 6.5215 0.43845 8.6156 2.1114 8.6156 6.883 0 3.1165-3.1507 5.8656-6.7225 5.8656-2.0326 0-2.2775-0.4839-2.2775-4.5 0-3.8443-0.29357-4.5-2.0147-4.5-3.9066 0-9.1291 13.307-7.6053 19.378 0.94903 3.7812 5.0108 4.5039 9.9888 1.7772 4.4399-2.432 4.8812-2.3111 4.8812 1.3363 0 3.7681-2.7932 6.2448-8.3985 7.447-6.2589 1.3423-7.6297 1.2974-11.473-0.37534zm88.122-0.01149c-7.4512-2.745-10.332-8.8166-9.1111-19.204 1.2123-10.314 7.9466-19.653 16.117-22.35 2.0564-0.67869 6.7267-1.0412 10.596-0.82257 5.7871 0.327 7.3365 0.80827 9.4695 2.9412 3.2723 3.2723 2.4903 7.2647-1.9537 9.9746-5.008 3.0537-6.6177 2.5649-6.6177-2.0096 0-5.3723-0.8286-7.0818-3.4327-7.0818-6.2874 0-13.671 17.506-10.556 25.027 0.69473 1.6772 2.0718 3.4823 3.0603 4.0113 2.9524 1.5801 9.2115 1.0867 12.626-0.99528 3.1605-1.9271 3.2045-1.9272 3.8123-0.01236 0.94715 2.9842-1.634 7.2856-5.5097 9.1818-5.1015 2.4959-13.676 3.1165-18.5 1.3392zm37.594 0.14197c-5.3518-1.8752-7.5846-5.7041-7.4231-12.729 0.26951-11.724 6.8954-19.548 17.479-20.641 10.279-1.0609 15.851 3.6721 15.851 13.466 0 14.721-12.748 24.515-25.906 19.904zm11.588-7.1701c1.9589-5.6848 3.6053-17.243 2.8722-20.164-0.49998-1.9921-1.1572-2.4236-3.3091-2.1727-2.2993 0.26807-2.9283 1.1035-4.3763 5.8131-1.9816 6.445-3.3606 17.276-2.4888 19.548 0.39437 1.0277 1.546 1.4747 3.2702 1.2694 2.0932-0.24929 2.9541-1.1661 4.0318-4.2935zm17.318 7.7574c0-2.2494 6.2481-31.843 6.8413-32.403 0.36228-0.34218 2.6243-0.91849 5.0267-1.2807l4.368-0.65855-0.44843 3.0553-0.44842 3.0553 2.6637-2.552c3.8373-3.6763 11.923-4.5709 14.851-1.643l2.1033 2.1033 3.5657-2.1038c4.3304-2.555 12.053-2.1538 14.166 0.73586 1.6408 2.2439 1.6748 9.2505 0.0898 18.494-1.1127 6.4886-1.0644 7.2349 0.54426 8.4112 1.6468 1.2041 1.5854 1.4323-0.91385 3.3982-5.1916 4.0837-12.409 1.6914-12.409-4.113 0-1.7089 0.74922-7.0154 1.6649-11.792 1.7786-9.2781 1.4638-11.987-1.393-11.987-2.8187 0-4.1664 3.207-6.8168 16.221-1.3585 6.6702-2.5791 12.219-2.7125 12.33-0.1334 0.111-2.8605 0.4097-6.0603 0.66377-5.4984 0.4366-5.7899 0.34736-5.3111-1.6259 1.9589-8.0727 4.7008-24.958 4.2454-26.145-0.3046-0.79376-1.1732-1.4432-1.9302-1.4432-3.0013 0-4.8817 4.1561-7.4177 16.395l-2.612 12.605h-4.2466c-2.3356 0-4.9584 0.27314-5.8284 0.60699-0.86999 0.33384-1.5818 0.18708-1.5818-0.32615zm106.03-0.58728c-4.8673-1.6723-6.1572-4.7266-5.8138-13.767 0.32609-8.5846 2.4585-12.792 8.6245-17.017 3.2208-2.2068 4.4995-2.4102 15.177-2.414l11.66-0.0041-1.3589 7.0041c-3.7914 19.542-3.8883 20.612-1.9918 21.999 1.6468 1.2041 1.5854 1.4323-0.91385 3.3982-3.1332 2.4646-5.8455 2.6501-9.6594 0.66054-2.3887-1.246-3.1113-1.246-5.5 0-3.2767 1.7093-5.5662 1.7407-10.224 0.14042zm11.455-5.0248c1.1226-1.7133 5.5186-21.17 5.5186-24.425 0-0.20376-1.4625-0.22946-3.25-0.05711-2.5807 0.24883-3.6012 1.0341-4.9555 3.8134-2.1635 4.4399-4.261 17.005-3.4069 20.408 0.82842 3.3007 4.0125 3.4368 6.0937 0.26042zm23.769 4.4044c-6.023-3.7876-3.5399-10.703 3.5494-9.8848 2.3132 0.26695 2.6534 0.71371 2.372 3.1146-0.60569 5.168 4.575 7.9077 6.8644 3.63 1.4607-2.7294-0.5429-5.8097-6.4002-9.8396-6.7325-4.6321-7.4853-8.9171-2.5534-14.534 4.9409-5.6274 15.298-7.4077 20.283-3.4865 3.3669 2.6484 3.4471 6.3491 0.18403 8.4872-3.7171 2.4356-6.1111 1.5283-5.7564-2.1815 0.34351-3.5924-1.7953-5.8297-4.6937-4.9097-1.0983 0.34857-2.3025 1.5967-2.676 2.7736-0.52613 1.6577 0.082 2.7773 2.6988 4.9685 10.222 8.56 10.185 8.5112 9.5543 12.397-1.0389 6.402-5.8712 9.9617-14.84 10.932-4.3171 0.46708-5.9568 0.18703-8.5861-1.4664zm31-0.06221c-5.6719-3.4582-3.4441-10.454 3.1254-9.815 2.7779 0.27028 3.0881 0.61497 2.7961 3.1069-0.60569 5.168 4.575 7.9077 6.8644 3.63 1.4607-2.7294-0.5429-5.8097-6.4002-9.8396-6.7325-4.6321-7.4853-8.9171-2.5534-14.534 5.5493-6.3203 18.529-7.5856 22.152-2.1594 1.5015 2.2487 0.71574 5.5867-1.6855 7.16-3.7332 2.4461-6.1137 1.5527-5.7416-2.1548 0.36106-3.5982-1.7968-5.8606-4.7084-4.9364-1.0983 0.34857-2.3025 1.5967-2.676 2.7736-0.52613 1.6577 0.082 2.7773 2.6988 4.9685 9.3399 7.8209 9.878 8.461 9.878 11.748 0 8.6743-15.352 15.172-23.75 10.052zm51.577 1.3339c-3.667-0.63497-7.6488-4.8761-8.4157-8.9636-1.4884-7.934 2.3386-17.949 8.4268-22.051 6.5071-4.3851 16.956-4.2621 21.471 0.25275 6.5307 6.5307 2.6274 24.296-6.3594 28.943-3.2588 1.6852-10.716 2.5823-15.123 1.8193zm9.0127-4.6522c1.8874-2.2742 4.1599-12.874 4.1599-19.403 0-6.0252-0.10415-6.2899-2.4743-6.2899-2.9498 0-4.7669 3.0642-6.4041 10.799-1.24 5.8586-1.493 14.496-0.45494 15.534 1.1095 1.1095 4.02 0.74913 5.1734-0.64063zm20.16 4.7956c0-0.09694 1.35-6.8417 3-14.988s3-14.967 3-15.156-0.9-0.34398-2-0.34398c-1.1111 0-2-0.66667-2-1.5 0-0.8949 0.92009-1.5 2.2808-1.5 1.7734 0 2.6077-0.92538 3.75-4.1594 2.1017-5.9503 5.395-8.0086 13.628-8.5173 7.4082-0.45779 11.57 0.9107 12.165 3.9999 0.52861 2.7449-1.7291 4.6768-5.4652 4.6768-3.0552 0-3.338-0.23362-2.8133-2.3242 0.35371-1.4093 0.0273-2.7857-0.82915-3.4965-1.9423-1.612-4.3302 1.153-5.2428 6.0707-0.65946 3.5536-0.55915 3.75 1.9154 3.75 1.6545 0 2.6113 0.54962 2.6113 1.5 0 0.99053-0.99079 1.5-2.9171 1.5-3.2659 0-3.185-0.23243-6.6185 19-0.93281 5.225-1.9814 9.7867-2.3302 10.137-0.54491 0.54742-12.134 1.8379-12.134 1.3512zm76.017-3.1439c0.46588-2.1144 2.4924-12.447 4.5034-22.961l3.6563-19.117 6.0763-0.6351c3.342-0.3493 6.1696-0.52175 6.2837-0.38321 0.11407 0.13854-0.56981 3.5144-1.5197 7.5019s-1.6188 7.25-1.4865 7.25c0.13235 0 1.5296-0.67223 3.105-1.4938 3.3503-1.7473 8.6602-1.9533 11.478-0.44536 3.5674 1.9092 4.0264 5.3001 2.1721 16.049-1.431 8.2947-1.5005 10.317-0.41491 12.055 1.7604 2.8189-0.23996 4.8069-5.5541 5.5197-7.4108 0.994-8.7256-3.1444-5.8214-18.324 1.6608-8.6802 1.2982-11.361-1.537-11.361-2.7721 0-4.3735 3.9787-6.9432 17.25l-2.2751 11.75-4.12 0.01365c-2.266 0.0075-5.0942 0.27498-6.2849 0.59438-2.0421 0.54779-2.1169 0.36272-1.3178-3.2637zm43.437 1.2011c-1.35-1.35-2.4385-3.4875-2.4189-4.75 0.0415-2.672 4.507-25.698 5.0786-26.187 0.2122-0.18163 2.9733-0.62168 6.1358-0.97788 4.303-0.48465 5.7441-0.33086 5.7266 0.6111-0.0129 0.6923-1.1162 6.7909-2.4518 13.552-2.3911 12.104-2.4249 15.175-0.16778 15.238 0.62865 0.01738-0.11958 1.1424-1.6628 2.5-3.5633 3.1348-7.1139 3.1396-10.24 0.01385zm21.28 0.46012c-1.8324-1.4414-2.7342-3.0876-2.7342-4.9911 0-2.3466 4.7445-29.174 6.4773-36.625 0.40296-1.7328 1.503-2.2294 6.1481-2.7753 3.1115-0.3657 5.883-0.4392 6.1589-0.16334 0.27586 0.27586-1.211 9.1182-3.3042 19.65-3.1689 15.944-3.5965 19.483-2.5553 21.15 2.7374 4.3833-5.5224 7.4265-10.19 3.7545zm25.579 0.89195c-5.1389-1.4868-7.3165-5.1552-7.291-12.282 0.0517-14.402 10.301-23.653 23.467-21.183 5.8954 1.106 8.748 4.3859 9.268 10.656 1.372 16.544-10.455 27.146-25.445 22.809zm12.015-8.8975c1.0054-3.025 1.9054-8.875 2-13 0.16087-7.0142 0.0304-7.5202-2.0148-7.8113-3.1957-0.45487-5.1641 3.2558-6.9836 13.165-1.9507 10.624-1.3532 13.899 2.4552 13.46 2.3148-0.2669 2.9846-1.1239 4.5431-5.8131zm19.922 8.0732c-1.7875-1.1241-3.3033-2.6129-3.3685-3.3085-0.407-4.3443 1.8506-6.7647 6.3096-6.7647 2.5241 0 2.8089 0.34246 2.8089 3.3776 0 3.9379 2.0455 6.0602 4.952 5.1377 1.4355-0.45561 2.048-1.5059 2.048-3.5119 0-2.3117-1.1055-3.7005-5.75-7.2237-6.4477-4.891-7.6173-8.2349-4.7917-13.699 2.0462-3.9569 6.4708-6.1732 13.618-6.8213 5.2396-0.47511 5.9881-0.28565 8.4 2.1262 2.8767 2.8767 2.7582 5.9877-0.32016 8.4022-3.0954 2.428-5.609 1.0896-6.1563-3.2781-0.53704-4.2859-2.8339-5.7224-5.548-3.4698-3.1108 2.5817-1.7074 5.7121 4.4286 9.879 6.91 4.6925 8.0779 7.475 5.4103 12.89-2.2599 4.5874-6.3574 6.9599-13.325 7.7153-4.4593 0.48345-6.0647 0.21616-8.716-1.4512zm37.063 0.82435c-5.1932-1.5025-7.3129-5.1383-7.3129-12.543 0-14.348 10.184-23.418 23.489-20.922 5.8954 1.106 8.748 4.3859 9.268 10.656 1.3501 16.281-10.694 27.077-25.445 22.809zm11.187-6.2436c1.789-4.2816 4.0497-19.779 3.206-21.977-0.35707-0.9305-1.7216-1.6767-3.0662-1.6767-2.9804 0-4.839 4.1555-6.6165 14.793-1.5284 9.1466-0.88994 12.207 2.5466 12.207 1.9263 0 2.8664-0.80044 3.93-3.3461zm56.94 5.4295c0.2579-0.87091 2.2968-11.003 4.5309-22.517 2.2341-11.513 4.1672-21.013 4.2956-21.111 0.1285-0.09791 2.8211-0.46944 5.9836-0.82564 5.071-0.57115 5.7472-0.43994 5.7261 1.1111-0.025 1.8754-1.2056 7.3195-2.3807 10.982-0.7017 2.187-0.6553 2.1993 2.8135 0.75 7.1304-2.9793 13.844-1.1616 14.834 4.0163 0.2679 1.4011-0.2744 6.8344-1.2051 12.074-1.3946 7.8515-1.4643 9.8262-0.3967 11.231 1.8703 2.4614 1.6939 2.9803-1.5913 4.6791-3.863 1.9976-7.4979 1.9346-9.5989-0.16638-1.4135-1.4135-1.5814-2.854-1.0199-8.75 1.9677-20.662 1.9785-19.558-0.192-19.558-3.2234 0-4.2015 2.1489-6.9027 15.165-1.4079 6.7842-2.847 12.622-3.198 12.972-0.351 0.35041-3.2322 0.83797-6.4027 1.0835-4.9143 0.38053-5.6954 0.2128-5.2956-1.1371zm81.165 0.61721c-2.8149-2.0583-1.7754-6.8246 1.7425-7.9895 4.2609-1.411 7.6522 0.46465 7.6522 4.2322 0 4.5142-5.4039 6.6754-9.3947 3.7573zm-752.27-13.514c-0.98199-3.9126 1.3069-5.0472 10.668-5.2883 8.4667-0.21806 8.5012-0.20876 8.8099 2.3741 0.41934 3.5084-1.6573 4.4228-11.098 4.8872-7.4908 0.36844-7.8109 0.29306-8.3796-1.9729zm-59.736-24.493c-2.4683-1.8049-1.6914-5.7942 1.4731-7.5643 3.4523-1.9311 7.6808-0.77233 9.1788 2.5154 1.0372 2.2765 0.89873 2.8177-1.1448 4.4724-2.702 2.1879-6.951 2.4456-9.5071 0.5765zm551.9-0.69803c-4.0099-4.4309 2.8314-10 8.4344-6.8663 3.1645 1.7701 3.9414 5.7595 1.4731 7.5643-2.6956 1.9711-7.8187 1.6101-9.9075-0.69803z" fill="#d4aa00"/>
  </g>
  <g transform="matrix(.10627 0 0 .10627 -18.443 21.732)">
   <path d="m585.71 120.37c0-2.3964 8.2207-42.947 8.8168-43.491 0.37574-0.34301 2.5957-0.86269 4.9332-1.1548 3.7964-0.47449 4.25-0.31134 4.25 1.5286 0 1.8959 0.1393 1.9343 1.75 0.48276 4.5693-4.1178 13.045-2.7574 16.324 2.6202 3.2638 5.3526 2.2329 16.325-2.0983 22.333-2.74 3.801-8.5555 6.4828-14.429 6.6539l-5.4823 0.15967-0.62074 4.0846c-0.34141 2.2465-0.93552 4.5939-1.3202 5.2164-0.85838 1.3889-12.123 2.8446-12.123 1.5667zm22.385-16.618c2.1861-3.436 4.2094-15.544 3.76-22.5-0.19074-2.9522-4.6034-3.1311-6.1458-0.24928-0.88977 1.6626-4.9996 21.549-4.9996 24.192 0 0.44391 1.3396 0.80711 2.977 0.80711 1.9964 0 3.4484-0.74111 4.4084-2.25zm62.615 15.498c-2.7052-1.3514-3.5684-2.449-3.8011-4.8336-0.39888-4.0876 1.6342-5.6104 6.9772-5.2259 4.2101 0.30292 4.3239 0.40267 4.3239 3.789 0 2.5682 0.47721 3.572 1.8244 3.8377 2.8359 0.55921 5.5736-2.657 7.2914-8.5657 1.6232-5.5836 1.3596-7.3009-0.84158-5.4818-2.2351 1.8472-8.627 2.5356-11.705 1.2606-4.9809-2.0631-5.7059-5.6901-3.4763-17.391l1.9307-10.132 5.9184-0.73928c3.2551-0.40661 6.0598-0.59792 6.2325-0.42515 0.17277 0.17277-0.64249 5.0879-1.8117 10.923-2.274 11.348-2.0857 13.736 1.0829 13.736 2.9923 0 4.7044-3.494 6.6153-13.5 0.94533-4.95 1.9934-9.28 2.329-9.6223s3.1198-0.89954 6.187-1.2384l5.5768-0.61607-2.8812 15.238c-4.6931 24.822-8.8656 30.74-21.67 30.737-4.2816-1e-3 -7.8323-0.61611-10.102-1.75zm143 0c-2.7433-1.3704-3.5667-2.4368-3.8084-4.932-0.37697-3.8914 2.126-5.5788 7.6007-5.1243 3.1708 0.26326 3.7234 0.66985 3.8161 2.8078 0.19917 4.5922 0.38161 5 2.2366 5 2.6484 0 5.0783-3.0948 6.7244-8.5644 1.9488-6.4754 1.9202-6.5381-2.1963-4.8182-4.9539 2.0699-10.724 1.0185-13.471-2.4547-3.8825-4.9083-0.63565-16.843 6.1312-22.537 1.7163-1.4442 3.6485-2.7002 4.2938-2.7912 3.1422-0.4429 22.672-0.26578 22.673 0.20563 3.2e-4 0.29714-1.1425 7.0471-2.5396 15-4.1832 23.812-8.5668 29.961-21.358 29.958-4.2816-1e-3 -7.8323-0.61611-10.102-1.75zm17.009-20.76c1.3241-1.5955 5.3346-19.478 4.5453-20.268-1.2629-1.2629-5.6965 1.1527-7.101 3.8688-1.8764 3.6286-3.6632 13.674-2.8743 16.16 0.68236 2.1499 3.7328 2.2844 5.43 0.23932zm517.51 20.946c-3.3483-1.7459-4.4851-3.1618-4.5075-5.6138-0.025-2.7634 2.8907-4.8224 6.8061-4.8061 4.7936 0.0199 5.8548 0.84652 5.7582 4.4847-0.068 2.5521 0.2925 3 2.4125 3 2.8044 0 5.2969-4.1876 6.5842-11.062 0.6202-3.312 0.5139-3.7575-0.6694-2.8032-3.7553 3.0283-13.009 2.3577-15.923-1.1541-1.6702-2.0124-1.3885-10.576 0.4963-15.087 3.6832-8.8152 7.7345-10.838 21.769-10.869 9.1606-0.02051 10.749 0.21051 10.75 1.5632 4e-4 0.87298-1.1425 7.848-2.5397 15.5-3.1117 17.041-5.9716 23.613-11.504 26.436-4.8216 2.4598-15.088 2.6776-19.432 0.41236zm16.866-21.685c1.5818-2.4803 5.0955-18.599 4.2407-19.454-1.2773-1.2773-5.2984 0.87327-6.9913 3.7392-1.9017 3.2192-3.3637 13.632-2.3024 16.397 0.8692 2.2651 3.3903 1.9245 5.053-0.68276zm606.61 21.498c-2.7433-1.3704-3.5667-2.4368-3.8084-4.932-0.377-3.8914 2.126-5.5788 7.6007-5.1243 3.5072 0.29119 3.7077 0.49591 3.7077 3.7857 0 2.5682 0.4772 3.572 1.8244 3.8377 2.7707 0.54635 5.5306-2.5882 7.1856-8.1611 2.0062-6.7556 2.0017-6.7662-2.1369-5.037-7.2781 3.041-15.382-0.91511-15.368-7.5023 0.015-7.0742 4.2572-15.276 9.7679-18.886 2.1104-1.3823 4.9161-1.7294 13.979-1.7294h11.339l-0.6347 4c-2.4024 15.142-5.6863 29.188-7.6595 32.762-3.5218 6.3792-7.7594 8.738-15.695 8.7362-4.2816-1e-3 -7.8323-0.61611-10.102-1.75zm16.893-20.619c1.6396-1.9756 5.1786-18.958 4.1624-19.974-1.477-1.477-5.0149 0.3659-6.6048 3.4404-1.9744 3.818-3.7432 13.407-2.9399 15.938 0.7201 2.2691 3.7182 2.6009 5.3823 0.59576zm316.36 20.437c-2.4146-1.5128-3.25-2.7596-3.25-4.8508 0-3.7578 1.6709-5.2178 5.95-5.1994 4.6617 0.0201 5.7257 0.86771 5.6296 4.4847-0.062 2.3544 0.391 3.067 2.1072 3.3113 2.6331 0.37479 4.867-2.6783 6.8983-9.4278 1.5032-4.9947 1.2716-6.3201-0.8109-4.6415-3.9001 3.1436-13.746 2.0478-15.782-1.7564-2.4702-4.6157-0.3833-14.332 4.1994-19.551 4.7799-5.444 6.2415-5.9106 18.556-5.923l11.248-0.011407-0.6213 3.5c-6.7046 37.768-8.6186 41.218-23.193 41.796-6.3444 0.25204-8.2486-0.0494-10.932-1.731zm17.891-21.316c0.6665-1.2375 1.9801-5.9967 2.9192-10.576 1.9031-9.2802 1.1813-10.873-3.5286-7.7869-3.7246 2.4405-7.381 17.43-4.8652 19.946 1.4095 1.4095 4.3155 0.5691 5.4746-1.5833zm-1922.5 5.0253c0.73912-3.8791 2.7576-14.133 4.4855-22.786l3.1417-15.733 5.5985-0.57781c3.0792-0.3178 5.7903-0.38599 6.0248-0.15154 0.46958 0.46958-1.3114 9.9501-2.3889 12.716-0.632 1.6226-0.43297 1.6398 2.8933 0.25 4.1874-1.7496 8.9596-1.9249 11.75-0.43167 3.5674 1.9092 4.0264 5.3001 2.1721 16.049-1.3728 7.9579-1.4741 10.359-0.5025 11.915 0.66926 1.0716 1.2168 2.168 1.2168 2.4363 0 1.0066-5.9959 3.5392-8.3789 3.5392-5.7481 0-6.8462-5.0959-4.1426-19.225 1.6172-8.4512 1.2807-10.775-1.5598-10.775-2.7097 0-4.4172 4.0822-6.9014 16.5-1.2103 6.05-2.4968 11.28-2.8589 11.623-0.36209 0.34272-3.1862 0.86655-6.2758 1.1641l-5.6174 0.54093zm43.026 5.1522c-3.1851-2.5054-3.2252-3.7141-0.58564-17.627 2.862-15.085 2.1822-13.942 8.6911-14.613 3.131-0.32315 5.8462-0.43418 6.0336-0.24674 0.18744 0.18745-0.80487 6.2166-2.2052 13.398-2.4872 12.756-2.5313 16.129-0.21181 16.193 2.2025 0.0609-4.4923 4.9684-6.7779 4.9684-1.2702 0-3.4951-0.93266-4.9442-2.0726zm21.593 0.8811c-1.2494-0.62345-2.5613-2.2872-2.9152-3.6972-0.52661-2.0982 4.8738-35.734 6.3789-39.73 0.40936-1.087 11.153-2.8697 12.027-1.9957 0.23981 0.23981-1.2378 9.097-3.2837 19.683-3.0632 15.85-3.5026 19.594-2.4898 21.216 0.98707 1.5806 0.96317 2.2362-0.12104 3.3204-1.9128 1.9128-6.9173 2.5408-9.5959 1.2042zm25.085 0.089c-5.2004-1.5046-7.3129-5.1363-7.3129-12.572 0-14.142 10.36-23.356 23.489-20.893 5.8954 1.106 8.748 4.3859 9.268 10.656 1.3501 16.281-10.694 27.077-25.445 22.809zm11.187-6.2436c1.789-4.2816 4.0497-19.779 3.206-21.977-0.35707-0.9305-1.7216-1.6767-3.0662-1.6767-2.9804 0-4.839 4.1555-6.6165 14.793-1.5284 9.1466-0.88994 12.207 2.5466 12.207 1.9263 0 2.8664-0.80044 3.93-3.3461zm21.275 5.8473c-4.1443-2.3403-5.2629-5.1079-3.2846-8.127 1.2745-1.9452 2.332-2.424 4.8211-2.1829 2.8883 0.2797 3.2174 0.65719 3.4959 4.0096 0.35594 4.2847 3.3666 6.0537 5.9337 3.4866 2.468-2.468 0.74023-6.0479-4.9712-10.3-4.6774-3.4823-5.3036-4.3814-5.5697-7.9964-0.24568-3.3385 0.21773-4.6269 2.5699-7.1449 5.2542-5.6246 17.679-6.8789 21.493-2.1696 2.9528 3.6466-0.17089 9.3686-4.7557 8.7114-1.522-0.21818-2.1281-1.2524-2.5073-4.2781-0.53704-4.2859-2.8339-5.7224-5.548-3.4698-3.0749 2.552-1.7138 5.7659 4.0678 9.6046 7.0124 4.656 8.5434 9.3796 4.8892 15.085-3.179 4.9632-15.322 7.7716-20.634 4.772zm36.319 0.19235c-5.3298-1.8675-7.3943-5.4612-7.2918-12.693 0.16447-11.6 6.5732-19.429 16.906-20.653 10.242-1.213 16.287 3.4841 16.283 12.652-3e-3 6.9811-1.8754 12.12-5.873 16.118-5.3758 5.3757-12.86 7.0861-20.024 4.5759zm11.588-7.1701c1.9412-5.6335 3.6078-17.233 2.8881-20.101-0.42967-1.7119-1.3041-2.4227-2.9804-2.4227-3.0206 0-5.2648 5.2559-6.8303 15.997-1.3367 9.171-0.77936 11.257 2.8909 10.82 2.0932-0.24929 2.9541-1.1661 4.0318-4.2935zm56.824 6.1544c0.27938-1.1978 2.2856-11.346 4.4582-22.552s4.082-20.481 4.243-20.611c0.16102-0.13046 2.8803-0.52864 6.0428-0.88484 6.6484-0.74882 6.6806-0.68548 4.25 8.3698-0.81194 3.025-1.4816 5.5895-1.4881 5.699-7e-3 0.10944 1.5487-0.45306 3.456-1.25 4.5143-1.8862 9.5255-1.8423 12.31 0.10773 2.7416 1.9203 2.9646 7.7849 0.70444 18.529-1.415 6.7269-1.399 7.3482 0.23672 9.1557 1.6775 1.8536 1.6673 2.003-0.23193 3.3921-2.9099 2.1284-6.4134 2.7781-9.3711 1.7379-3.3965-1.1945-4.0405-4.8381-2.4518-13.872 0.67708-3.85 1.2547-8.9125 1.2836-11.25 0.0444-3.5846-0.25693-4.25-1.9243-4.25-3.0961 0-4.6913 3.6018-7.086 16-1.2217 6.325-2.4948 11.78-2.8291 12.123-0.33432 0.34273-3.1958 0.87276-6.3588 1.1778-5.5177 0.53221-5.7304 0.4664-5.243-1.6231zm140.24 1.0614c-5.0116-0.63228-7.75-1.4194-7.75-2.2277 0-0.68746 1.575-9.7246 3.5-20.082s3.5-18.967 3.5-19.131c0-0.16405 3.0772-0.29828 6.8383-0.29828h6.8383l-2.7942 15.25c-1.5368 8.3875-2.9866 16.315-3.2218 17.616-0.409 2.2631-0.2261 2.3445 4.2059 1.8711 2.5484-0.27223 5.421-0.82259 6.3835-1.223 1.4298-0.59484 1.7472-0.20526 1.7347 2.1289-0.0199 3.706-0.90535 4.9961-4.3201 6.2944-3.1322 1.1908-3.9958 1.1794-14.915-0.19817zm26.617-1.2818c-2.3106-2.3106-2.4774-3.0162-1.8285-7.7345 0.82363-5.9885 4.2037-22.825 4.6567-23.196 0.16787-0.1373 2.8927-0.54108 6.0552-0.89728 6.7718-0.76272 6.5193-1.5788 3.7156 12.01-2.4457 11.854-2.7134 16.28-1.0466 17.31 1.7468 1.0796-3.4417 5.0501-6.5992 5.0501-1.3258 0-3.5547-1.1441-4.9531-2.5425zm55.698 1.1248c0.03538-0.59525 1.9703-10.757 4.2999-22.582l4.2356-21.5 5.8052-0.81155c3.1929-0.44635 6.005-0.61175 6.2492-0.36756 0.24419 0.24419-0.25312 3.4498-1.1051 7.1236-0.85201 3.6738-1.5491 6.8537-1.5491 7.0665 0 0.21281 1.6714-0.31144 3.7142-1.165 4.5048-1.8822 11.169-1.2268 13.001 1.2788 1.7195 2.3515 1.6283 6.1536-0.40176 16.747-1.5936 8.3159-1.5946 8.9491-0.0159 10.103 1.5682 1.1467 1.5556 1.3478-0.18249 2.9208-3.1267 2.8297-8.5366 3.1819-11.002 0.71639-2.5607-2.5607-2.5779-3.1118-0.47546-15.242 1.7304-9.9842 1.4876-12.87-1.0827-12.87-2.6477 0-4.4763 4.3208-6.9209 16.353-1.3107 6.4513-2.5519 11.88-2.7583 12.064-1.1013 0.98174-11.868 1.1321-11.811 0.16489zm45.936 0.1702c-1.9724-1.025-2.5652-2.1983-2.8091-5.5589-0.26111-3.5982 1.6933-16.341 3.4423-22.444 0.36228-1.2641-0.0725-1.75-1.5658-1.75-1.1371 0-2.0521-0.3375-2.0333-0.75 0.0265-0.5824 12.484-7.1666 17.227-9.105 0.47776-0.19525 0.56433 1.2672 0.19236 3.25-0.60318 3.2152-0.44803 3.605 1.435 3.605 1.21 0 2.1113 0.64031 2.1113 1.5 0 0.91962-0.93524 1.5-2.4171 1.5-2.0923 0-2.5619 0.67483-3.4941 5.0219-2.8298 13.195-3.4043 18.893-2.0672 20.504 1.0808 1.3023 1.0599 1.8212-0.12085 3.0019-2.1 2.1-7.0404 2.7111-9.9007 1.2246zm32 0.21732c0-0.72601 4.5866-23.809 5.508-27.72 0.41592-1.7654 0.0952-2.25-1.489-2.25-1.128 0-2.019-0.66195-2.019-1.5 0-0.9147 0.93208-1.5 2.3887-1.5 1.9302 0 2.5126-0.66018 3.034-3.4397 1.305-6.9562 10.36-10.93 20.391-8.9479 7.8539 1.5517 8.4395 7.5521 0.80029 8.2-3.4389 0.2917-3.6437 0.15401-3.0844-2.0742 0.37002-1.4743 0.059-2.8348-0.81348-3.5589-1.9541-1.6217-4.6179 1.441-5.3897 6.1966-0.5511 3.3961-0.4226 3.624 2.0428 3.624 1.6719 0 2.6308 0.54677 2.6308 1.5 0 0.99193-0.99212 1.5-2.9291 1.5-3.2513 0-2.5034-2.1312-6.9473 19.797-1.0362 5.1133-2.0505 9.445-2.2538 9.6259-0.78083 0.69483-11.87 1.2058-11.87 0.54697zm23.429-2.3572c0.34302-1.7119 1.8092-9.3001 3.2582-16.863 2.5751-13.44 2.693-13.75 5.2238-13.764 1.4241-0.0075 3.6629-0.30098 4.9751-0.65215 2.1975-0.58808 2.35-0.39401 1.9314 2.458l-0.45447 3.0965 3.3534-2.9444c6.3171-5.5465 14.284-2.9803 14.284 4.6011 0 4.5562-3.6678 8.4545-7.9546 8.4545-3.3829 0-3.4411-0.1336-2.0988-4.8139 1.8175-6.3374-1.5567-8.52-4.8358-3.128-1.0232 1.6825-2.658 8.0199-3.6344 14.089-0.97607 6.0668-2.2701 11.182-2.8755 11.367-0.60547 0.18485-3.5072 0.53313-6.4484 0.77396l-5.3475 0.43787zm41.884 2.343c-5.1636-1.5881-7.3165-5.232-7.2909-12.34 0.027-7.4629 2.3446-12.974 7.2788-17.306 6.031-5.2952 16.807-5.7028 22.445-0.84877 2.5691 2.212 2.7539 2.8968 2.7539 10.205 0 8.9557-1.625 12.703-7.6047 17.536-4.0418 3.2666-11.91 4.4991-17.582 2.7544zm11.123-6.2056c1.8011-4.3871 3.8524-16.545 3.4166-20.25-0.4708-4.0023-4.0486-4.6572-6.3398-1.1604-2.0518 3.1315-4.9581 18.751-4.1144 22.113 0.9918 3.9514 5.3037 3.5209 7.0376-0.70259zm17.923 4.8379c0.2722-1.1483 1.7173-8.3879 3.2112-16.088 1.494-7.7 2.9892-14.28 3.3228-14.622 0.3336-0.34218 2.519-0.91 4.8565-1.2618 4.0531-0.61004 4.25-0.5219 4.25 1.9021v2.5418l2.8959-2.141c1.5928-1.1776 4.9381-2.3712 7.4341-2.6526 4.01-0.45199 4.8368-0.18929 7.1041 2.2571 1.4112 1.5228 2.5659 2.35 2.5659 1.8382 0-1.5774 5.6424-4.3616 8.8392-4.3616 8.9919 0 10.881 4.1902 8.4443 18.732-1.4977 8.9384-1.4914 9.643 0.097 10.804 1.5614 1.1417 1.5686 1.3724 0.089 2.8516-2.2041 2.2042-6.245 3.0799-9.2563 2.006-4.2216-1.5054-4.7854-3.4795-3.3107-11.592 0.73-4.0158 1.5563-9.664 1.8362-12.552 0.4707-4.8553 0.3482-5.25-1.6296-5.25-3.3244 0-5.6032 4.934-7.5651 16.38-0.9789 5.7108-2.0642 10.826-2.4119 11.368s-3.2261 1.1947-6.3966 1.4517c-4.9192 0.39882-5.6963 0.23514-5.2993-1.1161 1.0325-3.5136 4.5638-23.348 4.5638-25.634 0-3.3298-3.4136-3.2739-5.619 0.09199-0.9158 1.3977-2.7284 7.7749-4.028 14.172-1.2996 6.3967-2.4732 11.722-2.6079 11.835-0.1348 0.11239-2.8631 0.41221-6.0628 0.66629-5.4957 0.43637-5.7903 0.34636-5.3228-1.6259zm79.667 1.1057c-4.8673-1.6723-6.1572-4.7266-5.8138-13.767 0.3261-8.5846 2.4586-12.792 8.6245-17.017 3.2283-2.2119 4.4892-2.4101 15.353-2.4136 7.5099-0.0024 11.695 0.36311 11.451 1-0.2114 0.55206-1.4411 6.7873-2.7326 13.856-2.1689 11.871-2.2224 12.944-0.7002 14.058 1.8741 1.3704 1.2768 2.7724-1.8921 4.4403-2.8932 1.5229-5.2322 1.4417-8.5657-0.29716-2.3887-1.246-3.1113-1.246-5.5 0-3.2767 1.7093-5.5662 1.7407-10.224 0.14042zm11.455-5.0248c1.1226-1.7133 5.5186-21.17 5.5186-24.425 0-0.20376-1.4625-0.22946-3.25-0.05711-2.5819 0.24894-3.5997 1.0329-4.9509 3.8134-2.1446 4.413-4.0874 16.411-3.2642 20.159 0.7778 3.5413 3.7909 3.7997 5.9465 0.50991zm35.519 5.8195c0-0.0969 1.35-6.8417 3-14.988 1.65-8.1466 3-14.967 3-15.156s-0.9-0.34398-2-0.34398c-1.1111 0-2-0.66667-2-1.5 0-0.8949 0.9201-1.5 2.2808-1.5 1.7734 0 2.6077-0.92538 3.75-4.1594 2.6284-7.4413 4.933-8.3365 21.539-8.3674 12.47-0.02314 14.363 0.17999 13.975 1.5-1.0648 3.6271-6.5449 33.893-6.5449 36.146 0 1.3644 0.4789 2.9596 1.0643 3.545 0.7524 0.75238 0.5853 1.5432-0.5699 2.6985-2.4203 2.4203-5.9825 2.991-9.1707 1.4692-2.418-1.1541-2.8671-2.0187-3.1255-6.0166-0.2535-3.922 2.6707-23.156 4.4189-29.065 0.3991-1.349-0.075-1.75-2.0688-1.75-2.2073 0-2.5009-0.34065-2.0031-2.3242 0.3537-1.4093 0.027-2.7857-0.8291-3.4965-1.9423-1.612-4.3302 1.153-5.2428 6.0707-0.6594 3.5536-0.5591 3.75 1.9154 3.75 1.6545 0 2.6113 0.54962 2.6113 1.5 0 0.99193-0.9921 1.5-2.9291 1.5-3.2506 0-2.7598-1.4349-6.6697 19.5-0.9244 4.95-1.9554 9.2867-2.291 9.6371-0.5237 0.5468-12.11 1.8396-12.11 1.3512zm52.09-0.36177c-7.7388-2.1648-9.3025-16.58-2.8388-26.171 4.1216-6.1161 7.784-7.4521 20.499-7.4779 9.4436-0.01913 11.24 0.22172 11.191 1.5-0.033 0.83753-1.1058 6.6978-2.3848 13.023-2.0693 10.233-2.1656 11.755-0.8738 13.817 1.0972 1.7512 1.1743 2.6512 0.3157 3.6857-1.8743 2.2584-6.677 2.8038-10.017 1.1376-2.6632-1.3286-3.4596-1.3381-6.4765-0.0776-3.6615 1.5299-5.5552 1.6433-9.4141 0.56381zm10.273-4.6324c1.836-1.836 2.1284-2.7914 4.0868-13.355 2.1737-11.724 2.125-12.14-1.4242-12.14-2.2386 0-3.3287 0.68527-4.4069 2.7702-2.6769 5.1766-4.7547 21.761-2.9521 23.563 1.1095 1.1095 3.104 0.75307 4.6964-0.83925zm25.412 4.0071c-4.1443-2.3403-5.2628-5.1079-3.2846-8.127 1.2745-1.9452 2.3319-2.424 4.8211-2.1829 2.902 0.28103 3.2333 0.66805 3.6884 4.3088 0.3868 3.0943 0.9727 4.0675 2.5875 4.2983 2.7557 0.39372 4.7845-2.1799 4.0441-5.1299-0.3254-1.2967-2.9632-4.1231-5.8616-6.281-4.7465-3.5337-5.3006-4.3456-5.5784-8.1739-0.2597-3.5794 0.1495-4.7084 2.592-7.1509 5.0073-5.0073 17.124-6.5833 20.979-2.7286 3.5006 3.5006 0.5133 10.137-4.2553 9.4537-1.522-0.21818-2.1282-1.2524-2.5073-4.2781-0.537-4.2859-2.8339-5.7224-5.548-3.4698-2.9025 2.4088-1.7055 5.6939 3.298 9.0513 6.2188 4.1728 7.25 5.5777 7.25 9.8775 0 6.6914-4.7821 10.585-14.164 11.532-3.7846 0.38216-6.1284 0.0914-8.061-0.99991zm27.682-1.4153c0.2993-1.4222 2.1393-10.911 4.0888-21.086 1.9496-10.175 3.7603-19.227 4.0239-20.115 0.3334-1.1241 2.1869-1.8159 6.0958-2.2753 3.0892-0.36307 5.8369-0.43995 6.106-0.17083 0.2692 0.26912-0.2444 3.4105-1.1413 6.9809-0.8968 3.5704-1.6306 6.7136-1.6306 6.985s1.5605-0.15858 3.4679-0.95552c4.9587-2.0719 10.137-1.8442 12.532 0.55103 2.449 2.449 2.5804 7.1103 0.4814 17.088-1.5262 7.2552-1.2779 10.912 0.741 10.912 2.3428 0-2.6874 3.9966-5.7544 4.572-7.3696 1.3826-9.3362-2.8586-6.9962-15.088 2.1413-11.19 2.0393-14.484-0.4487-14.484-3.1294 0-4.8332 3.7705-7.3896 16.353-1.3107 6.4513-2.5519 11.88-2.7583 12.064-0.2063 0.18397-2.9822 0.54147-6.1686 0.79443-5.7908 0.45973-5.7932 0.45879-5.2492-2.1259zm45.043 1.7604c-4.4684-2.6259-4.482-4.8161-0.1701-27.346l3.2535-17 5.8134-0.81189c3.1974-0.44654 6.0016-0.62371 6.2316-0.39372 0.23 0.22999-1.2627 9.0532-3.3171 19.607-3.1758 16.315-3.5407 19.501-2.4357 21.27 1.072 1.7166 1.063 2.3176-0.051 3.432-1.9417 1.9417-6.9893 2.614-9.3242 1.2419zm20.852 0.16046c-1.1812-0.47659-2.4896-1.4199-2.9077-2.0962-1.1842-1.9161-0.6343-8.4518 1.6962-20.16l2.1397-10.75h3.2347c1.7792 0 4.5893-0.2709 6.2447-0.60199l3.01-0.60199-2.3433 11.352c-2.5694 12.447-2.9549 17.407-1.4266 18.352 1.7421 1.0767 1.0922 2.401-1.9503 3.9743-3.2951 1.704-4.5744 1.7924-7.6974 0.53237zm53.648 0.51272c0-0.7706 9.054-44.896 9.2448-45.056 0.1404-0.11731 2.8427-0.52701 6.0052-0.91044 4.457-0.54038 5.7445-0.39988 5.7256 0.6248-0.025 1.3743-1.6628 9.0434-2.5718 12.046-0.4825 1.5938-0.2562 1.6126 3.0051 0.25 4.5689-1.909 9.5725-1.8754 12.369 0.08307 2.7416 1.9203 2.9646 7.7849 0.7044 18.529-1.3597 6.4638-1.3588 7.3926 0.01 8.9031 1.3739 1.5182 1.3442 1.8511-0.2975 3.3368-2.4428 2.2106-7.4817 3.125-9.948 1.8051-2.8346-1.517-3.304-5.4965-1.6669-14.131 2.0681-10.907 1.9168-15-0.5545-15-3.0962 0-4.6913 3.6018-7.0861 16-1.2217 6.325-2.4948 11.787-2.8291 12.137-0.5025 0.52462-12.11 1.8498-12.11 1.3823zm46.228-0.71089c-1.2495-0.62345-2.55-2.2421-2.89-3.5969-0.5216-2.0779 1.4374-16.166 3.3317-23.962 0.4475-1.8414 0.1277-2.25-1.7616-2.25-1.4219 0-1.9436-0.35154-1.3584-0.91543 1.0709-1.032 16.236-9.0846 17.109-9.0846 0.3101 0 0.2745 1.5418-0.079 3.4263-0.5693 3.0346-0.382 3.4633 1.6387 3.75 2.9571 0.41953 2.5542 2.234-0.584 2.6301-2.2622 0.28556-2.5716 1.0788-4.5405 11.644-2.0671 11.092-2.0112 14.55 0.2352 14.55 0.6134 0 0.2262 0.88906-0.8604 1.9757-2.4674 2.4674-7.2525 3.3238-10.24 1.8328zm34.226-1.2631c-1.35-1.35-2.4385-3.4875-2.4189-4.75 0.042-2.672 4.507-25.698 5.0786-26.187 0.9203-0.78773 11.886-1.5483 11.886-0.82444 0 0.44059-1.1026 6.5412-2.4501 13.557-2.4125 12.56-2.4503 15.629-0.1929 15.691 0.6286 0.0174-0.1196 1.1424-1.6628 2.5-3.5632 3.1348-7.1139 3.1396-10.24 0.0139zm20.164-14.124c1.8567-9.2118 3.4897-16.842 3.6287-16.957s2.4335-0.52472 5.0989-0.91182l4.8461-0.70381-0.6538 3.3257-0.6537 3.3257 1.8076-2.1986c3.4812-4.2341 11.906-5.6717 16.085-2.7446 2.6903 1.8844 2.9373 7.1829 0.846 18.149-1.1831 6.2033-1.1748 7.4901 0.059 9.2518 0.7883 1.1254 1.1385 2.5232 0.7782 3.1062-1.1441 1.8512-5.8244 3.0909-9.2456 2.4491-5.0201-0.94177-5.5585-3.6319-3.1869-15.922 2.1182-10.976 1.9047-13.591-1.1095-13.591-2.7927 0-4.5865 4.4368-7.0205 17.364l-2.1907 11.636-4.1037 0.0136c-2.2571 8e-3 -5.0617 0.27072-6.2325 0.58491-2.1051 0.56491-2.0912 0.38508 1.2472-16.178zm56.617 15.542c-4.0007-1.6072-4.474-5.1018-2.2511-16.62 2.4132-12.505 2.4456-13.343 0.5156-13.343-2.8459 0-1.4883-1.7875 2.6001-3.4234 2.255-0.90228 5.7344-2.7511 7.7321-4.1086 4.8006-3.2621 5.4633-3.1247 4.978 1.0319-0.3623 3.1036-0.1482 3.5 1.8906 3.5 1.3771 0 2.2992 0.6016 2.2992 1.5 0 0.92366-0.9379 1.5-2.441 1.5-1.3425 0-2.6487 0.3375-2.9027 0.75-0.2539 0.4125-1.2814 5.5991-2.2834 11.526-1.4632 8.6546-1.5808 11.162-0.5973 12.736 1.66 2.6582 1.6344 2.7244-1.7259 4.4621-3.3194 1.7165-4.5651 1.7945-7.8142 0.48914zm16.769 0.11881c0-0.32025 1.9666-10.482 4.3645-22.582l4.3598-22 5.7406-0.81155c3.1573-0.44635 5.9403-0.61175 6.1845-0.36756 0.2442 0.24419-0.2531 3.4498-1.1051 7.1236-0.852 3.6738-1.5491 6.8209-1.5491 6.9936 0 0.17271 1.9174-0.37548 4.2609-1.2182 5.7553-2.0696 11.416-1.0224 12.976 2.4004 1.0691 2.3464 0.3036 11.161-1.8645 21.472-0.3414 1.6236 0.031 3.1686 0.9974 4.1347 1.3901 1.3901 1.3615 1.7064-0.2895 3.2006-3.0959 2.8017-8.5127 3.1401-10.968 0.68512-2.5266-2.5266-2.602-4.5322-0.544-14.483 1.8429-8.9114 1.6139-12.983-0.7555-13.432-2.7605-0.52321-4.6588 3.7484-7.1796 16.156-1.3107 6.4513-2.5519 11.88-2.7583 12.064-0.7007 0.62468-11.875 1.2506-11.87 0.66489zm50.254 0.21311c-1.2328-0.23774-3.5953-1.7861-5.25-3.4407-2.724-2.724-3.0085-3.6197-3.0085-9.4714 0-14.231 10.333-23.419 23.549-20.94 7.5526 1.4169 9.8876 8.2739 4.6135 13.548-2.6951 2.6951-4.4376 3.2178-14.152 4.2454-2.8594 0.30246-3.5291 2.2684-2.0753 6.0921 0.8549 2.2485 1.6173 2.6712 4.8178 2.6712 2.0913 0 4.8514-0.73482 6.1336-1.6329 1.954-1.3686 2.4731-1.4091 3.2072-0.25 1.2291 1.9406 1.1546 2.2978-1.0676 5.1228-2.7814 3.5361-10.181 5.3257-16.767 4.0555zm10.818-21.218c2.9631-2.963 4.0247-8.278 1.9142-9.5825-2.9545-1.826-6.691 2.5212-8.3852 9.7555-0.5457 2.3301-0.324 2.75 1.452 2.75 1.1528 0 3.4113-1.3154 5.019-2.9231zm35.423 21.073c-5.6991-1.8531-7.5-4.8826-7.5-12.617 0-8.8954 3.6709-15.658 10.5-19.342 2.2393-1.2082 5.8527-1.63 14.25-1.6634 6.1875-0.0246 11.248-0.04094 11.245-0.0363-0.1288 0.19913-4.9946 26.157-4.9946 26.645 0 0.3965 0.675 1.3959 1.5 2.2209 1.3333 1.3333 1.3256 1.6744-0.07 3.0699-2.5427 2.5426-6.5007 3.069-9.6193 1.2791-2.4906-1.4294-3.1873-1.4468-6.2741-0.15705-3.6607 1.5295-5.7535 1.6688-9.0367 0.60119zm9.8635-4.9995c1.3916-1.5376 5.6365-19.536 5.6365-23.899 0-2.2548-5.8173-1.4678-7.3775 0.99802-2.7693 4.3768-4.9439 22.095-2.9558 24.083 1.1729 1.1729 2.976 0.71892 4.6968-1.1825zm25.956 3.4473-2.7924-2.402 1.789-10.348c0.9839-5.6914 2.0429-11.586 2.3532-13.098 0.4397-2.1428 0.1889-2.75-1.1357-2.75-2.6241 0-1.2568-2.259 2.0293-3.3526 1.6156-0.53766 5.0123-2.2533 7.5481-3.8125 2.5358-1.5592 4.9572-2.8349 5.3808-2.8349 0.4237 0 0.5147 1.575 0.2023 3.5-0.5232 3.2245-0.3695 3.5 1.9525 3.5 3.2761 0 2.5904 2.3932-0.8023 2.7999-2.3654 0.28357-2.6182 0.93544-4.6379 11.96-1.8469 10.081-1.9446 11.872-0.7217 13.223 1.6132 1.7825 0.9762 3.2124-2.1686 4.8676-3.3279 1.7517-5.9245 1.3903-8.9966-1.2522zm23.135-0.0526c-2.9674-2.9675-2.9889-3.7278-0.4545-16.045 2.3966-11.648 2.4307-12.5 0.5-12.5-2.8459 0-1.4883-1.7875 2.6001-3.4234 2.255-0.90228 5.7344-2.7511 7.7321-4.1086 4.819-3.2746 5.5357-3.1225 4.8615 1.0319-0.5189 3.198-0.3576 3.5 1.8692 3.5 1.4996 0 2.4371 0.57698 2.4371 1.5 0 0.97358-0.9755 1.5-2.7797 1.5-2.752 0-2.8005 0.1124-4.8546 11.25-1.7772 9.6362-1.8805 11.568-0.7203 13.465 1.81 2.9594 1.7943 3.0065-1.5957 4.7595-4.1645 2.1535-6.7644 1.9018-9.5952-0.92887zm23.787 1.4204c-4.3998-1.768-4.6813-4.5979-1.8881-18.982 1.4144-7.2835 2.7009-13.347 2.8589-13.474 0.158-0.12745 2.8748-0.52316 6.0373-0.87936 6.7718-0.76272 6.5193-1.5788 3.7156 12.01-2.4458 11.854-2.7134 16.28-1.0467 17.31 0.9016 0.5572 0.4923 1.3681-1.4695 2.9112-2.922 2.2984-4.656 2.5318-8.2075 1.1047zm25.3 0.35198c-3.8913-1.0824-6.5239-3.5935-7.5175-7.1706-3.9559-14.242 5.0355-27.088 18.976-27.11 7.4882-0.01201 11.877 3.3343 10.671 8.1371-0.6344 2.5277-4.2649 4.8262-7.6231 4.8262-1.5888 0-1.7804-0.57662-1.3237-3.9818 0.6019-4.4875-1.4537-6.3177-4.3738-3.8942-4.2606 3.536-7.1078 17.719-4.1506 20.676 1.8431 1.8431 6.2409 1.4276 9.1555-0.86498 2.8688-2.2566 4.6445-1.8582 4.6445 1.0422 0 3.176-1.1378 5.0427-3.9648 6.5046-3.0721 1.5886-11.531 2.6601-14.494 1.836zm45.552-0.62426c-5.4918-1.9243-7.6213-5.7259-7.4374-13.278 0.2806-11.528 6.8068-18.989 17.583-20.101 10.966-1.1318 16.583 4.4272 15.461 15.3-0.5797 5.6167-3.3413 11.848-6.5277 14.73-4.5573 4.1214-12.763 5.5616-19.079 3.3485zm10.452-5.1229c2.0189-3.0813 4.698-18.168 3.8851-21.878-0.5106-2.3312-1.0659-2.7554-3.2729-2.5-2.2222 0.25713-2.9387 1.1537-4.371 5.4697-1.9267 5.8055-3.3626 17.395-2.4498 19.774 0.907 2.3636 4.413 1.8749 6.2086-0.86538zm19.958 4.1331c1.0321-4.3872 5.4964-27 5.4964-27.841 0-0.47436-0.9375-0.86248-2.0833-0.86248-2.6147 0-2.0099-2.3884 0.7072-2.7928 1.2844-0.19114 2.4721-1.7217 3.4217-4.4094 2.2833-6.4628 5.5998-8.2978 14.997-8.2978 6.7214 0 8.2142 0.31682 10.028 2.1282 1.7671 1.7649 1.9369 2.4903 0.9952 4.25-0.8453 1.5794-2.0877 2.1218-4.8601 2.1218-3.5143 0-3.7239-0.17803-3.7148-3.1548 0.019-6.2875-4.4467-3.4138-5.9557 3.8323-0.6098 2.9286-0.4413 3.2027 2.1519 3.5 3.8012 0.43578 3.5758 2.2485-0.3267 2.6277l-3.1402 0.30517-2.7274 14.521c-1.5 7.9867-3.2369 14.674-3.8598 14.86-0.6228 0.18647-3.4983 0.58124-6.3898 0.87727-5.0247 0.5144-5.2345 0.44066-4.739-1.6655zm37.496 1.266c0-0.72601 4.5866-23.809 5.508-27.72 0.4411-1.8724 0.1126-2.25-1.9576-2.25-1.8004 0-2.3286-0.41439-1.912-1.5 0.3166-0.825 1.6024-1.5 2.8573-1.5 1.793 0 2.4153-0.71207 2.9055-3.3248 1.2821-6.8345 8.2831-10.389 18.418-9.3504 5.7488 0.58901 8.1809 1.9559 8.1809 4.5977 0 2.6049-2.0829 4.0776-5.7674 4.0776-2.9386 0-3.2846-0.26077-2.7174-2.048 0.7668-2.4158-1.0811-5.0558-3.0184-4.3124-1.4649 0.56211-3.4968 5.5069-3.4968 8.5096 0 1.3075 0.7339 1.8508 2.5 1.8508 1.5556 0 2.5 0.56667 2.5 1.5 0 1-1 1.5-3 1.5-1.65 0-3.0098 0.1125-3.0218 0.25-0.1736 1.9907-5.7709 28.865-6.0676 29.132-0.8021 0.72259-11.911 1.2708-11.911 0.58779zm31.419-0.0449c-4.8813-1.4173-6.7421-4.2475-7.2303-10.997-0.557-7.7 1.6514-13.647 6.7922-18.292 6.5-5.8724 17.63-6.1798 23.17-0.63991 2.5108 2.5108 2.8495 3.5758 2.8495 8.9586 0 15.791-11.357 25.1-25.581 20.97zm11.851-8.7617c0.9735-2.9352 2.0512-8.6619 2.3947-12.726 0.5499-6.5055 0.4117-7.4708-1.156-8.0723-4.0693-1.5615-6.5569 2.9168-8.5498 15.392-1.4125 8.8417-0.7413 11.468 2.8259 11.056 2.3037-0.26562 2.9833-1.1216 4.4852-5.6499zm17.121 7.9955c0.2573-0.91226 1.6799-8.1837 3.1614-16.159s2.9758-14.785 3.3206-15.133c0.3449-0.34823 2.6889-0.92697 5.2091-1.2861l4.5821-0.65295-0.9576 6.5249 2.3982-2.7882c3.3244-3.8648 9.7935-4.7662 12.779-1.7806 4.8421 4.8421 0.9621 14.116-5.9058 14.116-2.7899 0-3.0329-0.23344-2.342-2.25 1.3941-4.0688 0.9984-8.1732-0.823-8.5362-2.8855-0.57506-4.9456 4.2778-7.0148 16.524-1.093 6.4691-2.0572 11.814-2.1428 11.877-0.086 0.0631-2.9853 0.35946-6.4439 0.65865-5.5273 0.47816-6.2318 0.34325-5.8206-1.1147zm80.287 0.39068c-6.2039-2.2125-8.6003-7.3824-7.2721-15.689 1.3307-8.3216 5.6018-14.031 12.278-16.412 8.8432-3.1539 17.391-0.90697 19.963 5.2473 2.7928 6.6841 0.015 18.685-5.4738 23.649-4.6917 4.2429-12.83 5.5807-19.494 3.2042zm10.699-4.7993c1.9756-3.1223 3.6225-11.699 3.6225-18.866 0-5.9743-0.02-6.0149-2.75-5.7008-2.3536 0.27081-3.0104 1.1017-4.556 5.7635-1.9823 5.9786-3.3176 16.985-2.3626 19.474 0.8882 2.3148 4.4038 1.9245 6.0461-0.67116zm23.077 3.7955c-2.9674-2.9675-2.9889-3.7278-0.4545-16.045 2.3966-11.648 2.4307-12.5 0.5-12.5-2.6003 0-1.6303-1.7045 1.75-3.0752 1.7875-0.72479 5.3248-2.5794 7.8606-4.1213 2.5358-1.5419 4.9572-2.8035 5.3808-2.8035 0.4237 0 0.5147 1.575 0.2023 3.5-0.5189 3.198-0.3576 3.5 1.8692 3.5 1.4996 0 2.4371 0.57698 2.4371 1.5 0 0.98055-0.9816 1.5-2.8346 1.5-2.8255 0-2.8411 0.03613-4.8484 11.25-1.6563 9.2533-1.7899 11.62-0.7524 13.332 1.4299 2.3603 0.8949 3.6137-2.2489 5.2684-3.3898 1.7843-6.1834 1.3729-8.8612-1.3048zm23.882 0.97787c-3.2513-2.2773-3.5138-5.541-1.3442-16.715 2.4008-12.365 2.4183-12.808 0.5074-12.808-2.8459 0-1.4883-1.7875 2.6001-3.4234 2.255-0.90228 5.7344-2.7511 7.7321-4.1086 4.8006-3.2621 5.4633-3.1247 4.978 1.0319-0.3623 3.1036-0.1482 3.5 1.8906 3.5 3.2792 0 2.9158 2.7952-0.4138 3.1836-2.551 0.29753-2.817 0.82391-4.4543 8.8164-1.9868 9.699-2.2848 15.603-0.8327 16.5 1.7421 1.0767 1.0922 2.401-1.9503 3.9743-3.705 1.9159-6.0289 1.929-8.7129 0.049zm27.108 0.40839c-4.6143-1.341-7.599-5.1196-8.1907-10.369-1.5825-14.039 9.1544-25.012 22.662-23.16 5.835 0.79978 8.0834 2.9315 8.0834 7.6641 0 6.1091-4.7465 9.2233-15.5 10.17-2.4672 0.21716-3.0572 0.76324-3.3223 3.0745-0.1772 1.5458 0.2154 3.4583 0.8725 4.25 1.5174 1.8284 6.7007 1.7969 9.9498-0.0605 3.478-1.9882 4-1.8577 4 1 0 3.2693-2.9404 6.112-7.6851 7.4295-4.4273 1.2294-6.646 1.2299-10.87 2e-3zm9.7055-19.012c2.5412-1.36 5.141-7.4261 4.3078-10.051-1.5277-4.8134-7.9834 0.43119-9.1151 7.4051-0.4991 3.0754-0.3083 3.7266 1.0918 3.7266 0.9331 0 2.6051-0.48622 3.7155-1.0805zm14.857 18.937c0.01-1.6194 5.8831-32.101 6.2428-32.396 0.1372-0.11261 2.4507-0.52453 5.141-0.91537l4.8915-0.71062-0.6443 3.2217-0.6444 3.2217 2.5912-2.5912c3.28-3.28 10.673-4.6148 14.292-2.5806 3.5904 2.0175 4.0646 5.3757 2.3052 16.324-1.2623 7.8555-1.3232 10.116-0.3159 11.728 2.433 3.8959-4.2184 7.1809-9.8318 4.8558-3.7805-1.5659-4.0139-3.6751-1.7466-15.781 2.0581-10.99 1.8642-13.233-1.1435-13.233-2.7237 0-4.5981 4.6221-7.1979 17.75l-2.2279 11.25h-4.2779c-2.3529 0-4.9898 0.27315-5.8598 0.60699-0.9648 0.37022-1.5788 0.0777-1.5741-0.75zm59.345 0.18754c-1.1812-0.4974-2.4748-1.4337-2.8747-2.0807-1.1794-1.9083-0.6769-8.8285 1.3588-18.714 1.8584-9.0245 1.8592-9.25 0.034-9.25-3.1797 0-2.0707-1.7028 2.2295-3.4234 2.255-0.90228 5.7344-2.7511 7.7321-4.1086 5.0463-3.4291 6.1638-3.2184 5.4741 1.0319-0.5003 3.0827-0.3139 3.5 1.5629 3.5 1.2274 0 2.1308 0.63596 2.1308 1.5 0 0.91545-0.9326 1.5-2.393 1.5-2.9135 0-2.942 0.0707-5.1819 12.869-1.4842 8.4801-1.5771 10.658-0.5261 12.341 1.0435 1.6709 1.0298 2.2899-0.075 3.3946-1.8013 1.8013-6.8069 2.5624-9.4719 1.4402zm16.659 0.53774c0.4303-3.1704 8.8499-44.763 9.1079-44.993 0.2095-0.18649 2.9684-0.65279 6.1309-1.0362 6.6076-0.80113 6.5256-0.95126 4.25 7.7854-0.825 3.1674-1.5 5.939-1.5 6.1591 0 0.2201 1.5605-0.25185 3.4679-1.0488 4.9587-2.0719 10.137-1.8442 12.532 0.55103 2.449 2.449 2.5804 7.1103 0.4814 17.088-1.5262 7.2552-1.2779 10.912 0.741 10.912 2.3428 0-2.6874 3.9966-5.7544 4.572-7.2806 1.3658-9.4015-3.0035-6.9998-14.421 0.8425-4.0052 1.5318-9.0527 1.5318-11.217 0-3.2527-0.3427-3.9346-1.9769-3.9346-3.0962 0-4.6913 3.6018-7.0861 16-1.2217 6.325-2.4948 11.787-2.8291 12.137-0.4564 0.47834-12.155 1.876-12.097 1.4452zm45.489-0.73604c-1.1-0.64642-2.3306-1.6638-2.7347-2.2608-1.2369-1.8274-0.6947-8.5832 1.5717-19.585l2.163-10.5 5.9301-0.73703c3.2616-0.40537 6.0461-0.62112 6.1877-0.47946 0.1417 0.14166-0.9052 6.2785-2.3264 13.637-2.114 10.946-2.3596 13.739-1.3501 15.356 0.9919 1.5883 0.9689 2.2408-0.1171 3.3268-1.9417 1.9417-6.9893 2.614-9.3242 1.2419zm15.86-1.2583c0.2722-1.1483 1.7173-8.3879 3.2112-16.088 1.494-7.7 2.9892-14.285 3.3228-14.633s2.6684-0.92697 5.1886-1.2861l4.5821-0.65295-0.3858 3.2861c-0.3301 2.8113-0.2188 3.0197 0.77 1.4424 2.8088-4.4804 13.459-6.1492 16.952-2.6563 2.4469 2.4469 2.5159 5.7115 0.3678 17.415-1.5258 8.3132-1.5233 8.9979 0.037 10.139 1.5383 1.1248 1.5435 1.3541 0.064 2.8332-2.2041 2.2042-6.245 3.0799-9.2563 2.006-4.2216-1.5054-4.7854-3.4795-3.3107-11.592 0.73-4.0158 1.5563-9.664 1.8362-12.552 0.4681-4.8288 0.3404-5.25-1.5918-5.25-3.2549 0-4.8541 3.5364-7.2355 16-1.2085 6.325-2.4705 11.787-2.8044 12.137-0.3338 0.35041-3.225 0.83996-6.4247 1.0879-5.4931 0.42563-5.7901 0.33427-5.3228-1.6371zm81.876 0.8177c-6.2791-3.2106-4.6175-10.872 2.2129-10.204 2.5255 0.2471 3.008 0.69751 2.8012 2.6145-0.5458 5.058 3.8606 8.1655 6.71 4.7321 2.0098-2.4217 0.7957-4.7199-4.9626-9.3941-3.0236-2.4544-5.852-5.3783-6.2853-6.4976-3.5305-9.1197 12.206-18.37 22.338-13.131 2.2087 1.1422 2.9503 2.2344 2.9503 4.345 0 3.4671-3.0382 6.4029-6.1675 5.9597-1.9081-0.27024-2.2727-0.8404-2.004-3.1333 0.6462-5.5139-3.592-7.5138-6.5042-3.0692-1.9138 2.9208-2.6327 1.9762 8.16 10.721 3.9362 3.1892 4.5652 6.7213 2.0598 11.566-2.8731 5.5558-15.046 8.6926-21.308 5.4908zm28.764-0.40555c-1.1-1.1-2-2.45-2-3 0-1.7607 3.9298-5 6.0657-5 5.6699 0 8.0468 5.4069 3.7118 8.4433-2.9913 2.0952-5.3749 1.9593-7.7775-0.4433zm-2014.5-1.2036c0.2958-1.263 2.0877-10.562 3.982-20.664 1.8943-10.102 3.645-18.569 3.8904-18.814 0.2454-0.2454 5.7798-0.5298 12.299-0.63199 9.763-0.15306 12.433 0.13114 15.145 1.6121 6.5276 3.564 6.921 12.827 0.78343 18.452-2.9767 2.728-4.3226 3.2506-8.3706 3.2506-2.6931 0-5.6809-0.64847-6.7647-1.4682-1.8269-1.3818-1.8336-1.4701-0.11421-1.5 1.0048-0.01749 3.1423-1.3472 4.75-2.9549 5.152-5.152 3.3218-14.077-2.8866-14.077-1.4173 0-2.3227 0.76831-2.6516 2.25-0.27466 1.2375-1.9707 9.9-3.769 19.25l-3.2697 17-6.7807 0.29639c-6.6232 0.2895-6.7682 0.24304-6.2429-2zm362.95-9.7027c-0.91861-0.91861-0.36065-4.9039 0.82424-5.8873 2.0061-1.6649 17.625-1.9857 18.24-0.37461 1.6054 4.2058-0.48172 5.4834-9.9886 6.1147-4.7569 0.31586-8.8411 0.38212-9.076 0.14724zm-273.86-26.665c-0.86429-0.86428-1.5714-2.4138-1.5714-3.4433 0-2.2211 3.604-4.9853 6.5-4.9853 1.1302 0 3.0551 0.70052 4.2775 1.5567 4.408 3.0875 1.6947 8.4433-4.2775 8.4433-1.8464 0-4.0643-0.70714-4.9286-1.5714zm350.92-0.43263c-4.0099-4.4309 2.8314-10 8.4344-6.8663 3.1645 1.7701 3.9414 5.7595 1.4731 7.5643-2.6956 1.9711-7.8187 1.6101-9.9075-0.69803zm534.48-0.01886c-1.5963-1.5963-1.8024-2.435-0.9771-3.9771 1.2581-2.3507 4.1172-4 6.9343-4 2.1359 0 6.0657 3.2393 6.0657 5 0 2.0692-4.1031 5-7 5-1.678 0-3.8914-0.89144-5.0229-2.0229zm135.52 0.01886c-4.0099-4.4309 2.8315-10 8.4344-6.8663 3.1645 1.7701 3.9414 5.7595 1.4731 7.5643-2.6955 1.9711-7.8186 1.6101-9.9075-0.69803zm271 0c-2.6886-2.9709-0.7308-6.6737 3.9977-7.5608 4.2244-0.79251 7.506 1.4742 7.506 5.1847 0 4.3852-8.1602 6.0707-11.504 2.3761zm511.25 0.92396c-4.0086-2.3348-0.5019-8.9199 4.75-8.9199 2.8512 0 6.5 2.7516 6.5 4.9017 0 4.1268-6.8581 6.5763-11.25 4.0182z" fill="#d4aa00"/>
  </g>
  <g transform="matrix(.19656 0 0 .19656 27.981 -.75964)">
   <path d="m315.79 239.98c0-0.89753 4.2895-23.044 4.4924-23.194 0.0514-0.0469 1.2801-0.20269 2.7185-0.35744 2.3645-0.25425 2.5897-0.18319 2.3484 0.73959-0.14674 0.56104-0.0477 1.0199 0.22325 1.0199 0.26952 0 0.49006-0.20433 0.49006-0.45428 0-0.60993 2.4838-1.7083 3.8635-1.7083 2.0389 0 4.6861 1.669 5.5562 3.5028 1.6659 3.5099 0.80675 8.7969-1.9374 11.922-1.781 2.0284-6.4954 3.8125-8.8733 3.358-1.3723-0.26213-1.4992-0.0479-2.0878 3.4502-0.29549 1.7588-0.53483 1.9925-2.345 2.2919-3.3904 0.56066-4.4489 0.42455-4.4489-0.57093zm12.099-8.6876c1.0996-2.1265 2.0706-7.5439 1.8641-10.401-0.14642-2.026-0.37387-2.4613-1.361-2.6019-1.6186-0.23036-2.5044 1.6907-3.6041 7.8157-1.1955 6.6578-1.1929 6.6807 0.72048 6.6807 1.2092 0 1.7996-0.37043 2.3805-1.4937zm167.76-2.376c1.2839-6.5889 2.3974-12.031 2.4747-12.092 0.079-0.0615 1.3171-0.24033 2.7555-0.39509 2.3145-0.24885 2.5862-0.17 2.3633 0.68241-0.23314 0.89107-0.11629 0.88351 1.5672-0.11028 3.194-1.884 7.5678-0.32708 8.8963 3.1666 1.2574 3.3074 0.22067 8.4321-2.2827 11.283-1.7811 2.0284-6.4954 3.8125-8.8733 3.358-1.376-0.26303-1.5286-0.016-2.1429 3.456-0.31015 1.7531-0.56068 1.9998-2.3266 2.2921-1.0885 0.17974-2.6061 0.3297-3.3724 0.33297l-1.3934 0.011zm10.139 2.3344c1.0327-1.9971 2.0616-7.9602 1.8404-10.667-0.13677-1.6738-0.41327-2.1595-1.3023-2.2863-1.7331-0.24815-2.333 0.93595-3.4853 6.8807-1.434 7.3975-1.419 7.6076 0.54513 7.6076 1.2198 0 1.7998-0.37078 2.4021-1.5353zm103.4-2.3344c1.2839-6.5889 2.3976-12.031 2.4747-12.092 0.0788-0.0615 1.3171-0.24033 2.7556-0.39509 2.3145-0.24885 2.5862-0.17 2.3633 0.68241-0.23318 0.89107-0.11635 0.88351 1.5672-0.11028 3.9941-2.356 8.792 0.41672 9.2666 5.3559 0.56303 5.8601-2.2027 10.362-7.2703 11.836-1.6321 0.4743-3.5473 0.75166-4.256 0.61617-1.376-0.26303-1.5286-0.016-2.1429 3.456-0.31007 1.7531-0.56075 1.9998-2.3267 2.2921-1.0885 0.17974-2.6061 0.3297-3.3724 0.33297l-1.3933 0.011zm10.139 2.3344c1.0328-1.9971 2.0616-7.9602 1.8404-10.667-0.13677-1.6738-0.41324-2.1595-1.3022-2.2863-1.7332-0.24815-2.3331 0.93595-3.4854 6.8807-1.434 7.3975-1.419 7.6076 0.54517 7.6076 1.2197 0 1.7998-0.37078 2.402-1.5353zm-404.64 3.4721c0.0188-0.57677 4.854-24.267 4.9688-24.366 0.0908-0.0795 1.5649-0.31257 3.2747-0.51987 2.4096-0.2933 3.1059-0.21673 3.0955 0.33759-0.0164 0.74286-0.8988 4.889-1.3903 6.5122-0.2607 0.86159-0.13853 0.87158 1.6248 0.1349 2.7106-1.1323 5.5072-1.0154 6.8073 0.28502 1.3242 1.3244 1.3952 3.8447 0.2604 9.2388-0.8208 3.9019-0.69115 5.8997 0.38302 5.8997 0.92195 0-0.73019 1.6817-2.2018 2.2412-0.73294 0.27867-2.0017 0.35985-2.8197 0.18008-2.2832-0.5015-2.793-2.6618-1.8235-7.7279 1.1446-5.9828 1.0702-8.2099-0.27373-8.2099-1.6741 0-2.5363 1.9474-3.8312 8.6504-0.6605 3.4198-1.349 6.3728-1.5298 6.5622-0.24704 0.25911-6.5537 1.012-6.5445 0.78133zm24.598-0.39791c-2.3096-1.3572-2.3591-2.1425-0.69845-11.072l1.2198-6.5592 3.2076-0.33526c1.7641-0.18427 3.2874-0.25535 3.3848-0.15765 0.0978 0.0974-0.47002 3.411-1.2614 7.3623-1.1919 5.9501-1.3225 7.3716-0.75988 8.2721 0.55087 0.88243 0.54122 1.2255-0.0482 1.8182-1.0498 1.0497-3.7793 1.4133-5.0416 0.67135zm11.084-0.0755c-1.9958-1.0042-1.9872-3.1013 0.0537-14.242l1.7995-9.8028 3.2153-0.3357c1.7684-0.18477 3.2868-0.26443 3.3744-0.17757 0.0863 0.0867-0.73424 4.8434-1.8261 10.568-1.6195 8.4926-1.8642 10.602-1.3294 11.459 0.89038 1.4257 0.87545 1.4636-0.93966 2.4022-1.9242 0.99511-2.5912 1.0149-4.3521 0.12878zm13.757 0.11867c-0.90845-0.26414-2.2466-1.1134-2.9736-1.8876-1.1441-1.2181-1.3179-1.9045-1.292-5.1037 0.0195-3.121 0.27855-4.0984 1.6289-6.2822 1.9484-3.1516 4.1453-4.5112 7.9196-4.9007 5.9423-0.61334 8.9791 2.3872 8.3717 8.2709-0.31338 3.0368-1.8064 6.4062-3.5292 7.964-2.3519 2.1268-6.6484 2.9496-10.125 1.9393zm5.1226-2.3438c0.88778-1.0696 1.6224-3.7838 2.1724-8.0269 0.61881-4.7736 0.3128-5.9193-1.5237-5.7061-1.1766 0.13656-1.5728 0.63596-2.3424 2.9549-1.0415 3.1389-1.818 9.4053-1.3244 10.691 0.40333 1.0512 2.1756 1.1023 3.0182 0.0855zm13.031 2.3449c-1.8906-0.79228-3.2551-2.1373-3.2551-3.2082 0-1.4392 1.886-2.8053 3.6016-2.6086 1.3275 0.15183 1.547 0.42309 1.6258 2.0088 0.13443 2.7035 2.3052 3.6541 3.6106 1.581 0.82671-1.3126-0.29132-3.0817-3.1828-5.0354-3.0932-2.0905-3.8454-4.0664-2.5489-6.6969 1.2071-2.4486 3.6484-3.8507 7.2792-4.1799 3.8018-0.34529 5.505 0.55221 5.7418 3.0247 0.19795 2.0675-0.87974 3.2556-2.9533 3.2556-1.0455 0-1.2406-0.32415-1.3834-2.298-0.14564-2.0125-0.32587-2.2976-1.4519-2.2976-0.72569 0-1.6304 0.51914-2.077 1.1914-0.88157 1.3279-0.60153 1.7006 4.1013 5.4624 1.6937 1.3544 2.235 2.1664 2.235 3.3532 0 2.2966-1.0445 4.2094-2.9372 5.3792-2.0339 1.257-6.5773 1.8343-8.4055 1.0681zm18.738-0.20791c-2.5439-0.90716-3.4581-2.0713-3.9099-4.9778-0.40543-2.6084 0.0437-5.0862 1.3888-7.7543 1.2373-2.4448 2.6692-3.7111 5.2272-4.6234 4.785-1.7066 9.4026-0.49068 10.795 2.8426 1.5314 3.6653 0.0475 10.056-2.9619 12.78-2.5366 2.294-6.937 3.0174-10.54 1.7324zm5.7846-2.5948c1.0681-1.6881 1.9585-6.3253 1.9585-10.2 0-3.2303-0.0168-3.2522-1.4868-3.082-1.2725 0.14628-1.6276 0.59525-2.4633 3.1159-1.0717 3.2324-1.7938 9.1833-1.2774 10.529 0.48031 1.2515 2.381 1.0405 3.269-0.36283zm31.154 2.8447c0-0.37282 4.1168-21.092 4.5787-23.044 0.22152-0.93617 0.81959-1.2056 3.3287-1.5008 1.6822-0.19777 3.1578-0.26003 3.2791-0.13875 0.12124 0.12128-0.15642 1.8454-0.61702 3.8319-0.4607 1.9862-0.83758 3.7055-0.83758 3.8206 0 0.11499 0.84375-0.14338 1.875-0.57418 2.681-1.1204 5.4806-0.99704 6.7756 0.29796 1.3076 1.3075 1.3672 3.2765 0.27284 8.9962-0.81038 4.2352-0.69536 6.1422 0.37044 6.1422 0.92197 0-0.73021 1.6818-2.2018 2.2413-0.73294 0.27861-2.0223 0.35514-2.8652 0.17002-2.5814-0.56699-2.8543-1.8565-1.769-8.3619 0.99248-5.9492 0.87792-7.566-0.53602-7.566-1.4315 0-2.4202 2.336-3.7419 8.8416-0.70862 3.4879-1.3797 6.4231-1.4913 6.5225-0.40718 0.36295-6.4206 0.66395-6.4206 0.32126zm24.871 0.17924c-2.4939-0.95289-2.6764-3.1513-0.98299-11.841l1.1797-6.0532 3.2347-0.33812c1.7791-0.1856 3.2914-0.27661 3.3606-0.20156 0.0717 0.0775-0.5108 3.3681-1.289 7.3183-1.1973 6.0774-1.3062 7.356-0.70836 8.3135 0.58441 0.9358 0.58028 1.2578-0.0176 1.8619-0.84874 0.84874-3.5941 1.3896-4.7709 0.93998zm12.611-0.41197c-2.5594-1.1457-3.5281-3.0067-3.5281-6.7774 0-6.9442 4.3013-11.378 11.038-11.378 3.502 0 5.2674 1.2996 5.2821 3.8892 0.0161 1.6526-1.7079 3.1392-3.6263 3.1392-1.0966 0-1.2314-0.26264-1.2314-2.4012 0-1.3206-0.24129-2.5499-0.53615-2.7319-1.5606-0.96487-4.8704 5.5034-4.8704 9.5182 0 1.7413 1.2546 3.1842 2.7688 3.1842 1.4569 0 4.2598-1.5031 4.2598-2.2845 0-0.45233 0.16709-0.46816 0.58005-0.0487 0.31904 0.319 0.50147 1.4016 0.40549 2.4058-0.14106 1.4763-0.537 1.9999-2.0669 2.7338-2.7933 1.3402-6.4444 1.667-8.4746 0.75804zm17.68 0.0589c-2.6316-0.90415-3.329-2.5555-3.1433-7.4433 0.17638-4.6413 1.3292-6.9161 4.6629-9.2002 1.7454-1.196 2.4272-1.3029 8.3006-1.3048 4.0603-2e-3 6.3231 0.19629 6.1912 0.54061-0.11432 0.29837-0.77912 3.6697-1.4774 7.4917-1.208 6.611-1.2233 6.9825-0.31567 7.6461 0.88972 0.6506 0.85636 0.77428-0.49456 1.8369-1.694 1.3324-3.1604 1.4328-5.2225 0.35711-1.2915-0.67374-1.6822-0.67374-2.9736 0-1.7716 0.9241-3.0094 0.94111-5.5277 0.0784zm6.1934-2.7166c0.60692-0.92644 2.9837-11.446 2.9837-13.206 0-0.11008-0.79073-0.124-1.7572-0.03-1.3951 0.1344-1.9473 0.55941-2.6801 2.0618-1.3453 2.7582-2.3047 9.5553-1.5748 11.157 0.74046 1.6252 1.9702 1.6321 3.0283 0.0168zm14.067 2.7991c-2.4238-1.4242-2.4298-2.6485-0.0767-14.785l1.7847-9.1914 3.1209-0.43851c1.7166-0.24121 3.2282-0.33147 3.3592-0.20034 0.13103 0.13116-0.66178 4.9242-1.7617 10.652-1.6548 8.6174-1.8841 10.599-1.329 11.488 0.54067 0.86598 0.52915 1.2158-0.0569 1.8046-1.0498 1.0497-3.7788 1.4133-5.0412 0.67137zm15.636-0.37166c0.14786-0.49331 0.91911-4.4245 1.7139-8.7364 0.79479-4.3118 1.5955-7.9937 1.7794-8.182 0.18392-0.18827 1.4493-0.5012 2.8118-0.69537l2.4774-0.35287-0.25892 1.7638-0.25891 1.7638 1.2958-1.4923c1.6666-1.9193 4.7772-2.4967 6.6919-1.242 1.1145 0.73019 1.3622 1.3256 1.3622 3.2737 0 1.9286-0.27088 2.5946-1.4245 3.5017-0.78355 0.61644-2.1381 1.1208-3.0101 1.1208-1.4073 0-1.5386-0.13657-1.1687-1.2166 0.75371-2.1998 0.53978-4.4189-0.445-4.6151-1.5205-0.30303-2.4904 2.0018-3.7051 8.8055-0.63716 3.5681-1.1971 6.5156-1.2442 6.5497-0.0474 0.036-1.6159 0.19433-3.4857 0.35614-2.9926 0.25888-3.3677 0.18664-3.1312-0.60262zm23.262 0.41794c-2.4948-0.72512-4.1085-2.7681-4.4284-5.6064-0.85552-7.5902 4.9494-13.523 12.253-12.522 3.1548 0.43242 4.3704 1.5849 4.3704 4.1438 0 3.3026-2.5662 4.9865-8.3803 5.4983-1.4552 0.12829-1.622 0.33109-1.622 1.976 0 3.0296 2.1035 3.4649 6.8934 1.4272 0.76206-0.32407 0.94615-0.12846 0.94615 1.0068 0 1.8219-1.5634 3.3552-4.155 4.0748-2.3937 0.66478-3.5933 0.66499-5.877 2e-3zm5.2474-10.279c1.3739-0.73509 2.7795-4.0147 2.3291-5.4341-0.82599-2.6027-4.3164 0.23295-4.9282 4.0036-0.26985 1.6625-0.1667 2.0148 0.59034 2.0148 0.50452 0 1.4084-0.26304 2.0088-0.58432zm13.071 10.5c-5.3898-1.1401-6.0046-11.386-0.94958-15.824 4.6124-4.0497 13.208-3.36 13.208 1.06 0 1.802-0.94167 2.6431-3.4065 3.0434l-1.8811 0.30495 0.272-2.4126c0.32775-2.9081-0.73542-3.6999-2.4778-1.8451-2.3198 2.4694-3.6765 9.5102-2.1304 11.056 1.0739 1.0738 3.4916 0.73457 5.2386-0.73558l1.645-1.3842 0.33762 1.3455c0.51657 2.0579-0.22911 3.6111-2.11 4.3946-1.9919 0.82967-6.0615 1.3537-7.7459 0.99735zm15.633-0.20277c-2.3787-0.95589-2.5309-2.4859-1.0208-10.263 0.76476-3.9376 1.4603-7.2161 1.5458-7.285 0.0837-0.0713 1.5542-0.28286 3.2641-0.47537 3.6581-0.41195 3.5217-0.84413 2.0275 6.4174-1.2515 6.0822-1.3957 9.4538-0.40548 9.4789 0.37172 0.0159-0.0126 0.61753-0.84115 1.3515-1.6024 1.4097-2.579 1.5755-4.5699 0.77547zm34.522-0.14723c-2.9333-1.0278-4.1142-3.0991-4.0572-7.1162 0.0826-5.9478 3.4284-10.083 8.8058-10.889 3.2083-0.48107 5.948 0.28611 7.24 2.0273 0.93589 1.2613 0.98227 1.6615 0.39792 3.4321-0.79003 2.3941-3.8024 4.0306-7.4532 4.0495-2.5436 0.0168-3.1665 0.72605-2.6012 2.9784 0.21571 0.85928 0.85438 1.4719 1.7757 1.7033 1.2989 0.32607 2.0209 0.16578 5.1679-1.1471 0.77652-0.32392 0.94614-0.10854 0.94614 1.2014 0 1.945-1.1979 3.0882-4.0549 3.8694-2.6796 0.73276-3.8225 0.71255-6.167-0.10895zm6.1696-10.871c2.391-2.3908 2.4767-5.9586 0.13499-5.6262-1.2707 0.18048-3.6519 4.0695-3.6519 5.9646 0 1.407 1.9602 1.2184 3.5169-0.33841zm64.336 11.118c-3.0813-1.0019-4.0549-2.6399-4.0549-6.8214 0-4.8092 1.9846-8.4655 5.6769-10.458 1.2107-0.65308 3.1643-0.88114 7.7044-0.89935 3.3454-0.0162 6.0812-0.017 6.0795-0.017-0.0721 0.10774-2.7003 14.142-2.7003 14.406 0 0.21426 0.41197 0.80177 0.91556 1.3052 0.86027 0.86034 0.85214 0.96176-0.13521 1.684-1.7727 1.2966-3.5876 1.4926-5.208 0.56275-1.3466-0.77278-1.7232-0.78218-3.3922-0.083-1.9792 0.82688-3.1106 0.90212-4.8858 0.32501zm5.3328-2.7031c0.75234-0.8313 3.0475-10.563 3.0475-12.921 0-1.2191-3.1452-0.7937-3.9888 0.53949-1.4972 2.3666-2.673 11.946-1.5981 13.021 0.63414 0.63425 1.609 0.3888 2.5394-0.63931zm37.89 2.5849c-0.90823-0.26407-2.2464-1.1133-2.9736-1.8875-1.144-1.2181-1.3178-1.9045-1.292-5.1037 0.019-3.121 0.27852-4.0984 1.6289-6.2823 1.9485-3.1516 4.1453-4.511 7.92-4.9005 5.9415-0.61343 8.9785 2.3871 8.3712 8.2708-0.31316 3.0368-1.806 6.4062-3.5288 7.9641-2.3522 2.1269-6.6487 2.9497-10.126 1.9392zm5.123-2.3437c0.88762-1.0695 1.6222-3.7837 2.1719-8.0269 0.61894-4.7733 0.31326-5.9193-1.5238-5.7063-1.1765 0.13661-1.5723 0.6363-2.342 2.9552-1.0418 3.1387-1.818 9.4052-1.3248 10.691 0.40374 1.0511 2.1757 1.1022 3.0186 0.0856zm12.127 1.5376c-1.2284-1.2287-1.3429-1.6677-1.0257-3.9199 0.40327-2.868 3.5324-19.214 3.7015-19.337 0.0576-0.0474 1.5072-0.23724 3.2183-0.4294 2.7397-0.30876 3.1071-0.23773 3.1029 0.60036 0 0.52304-0.84682 5.2666-1.8776 10.541-1.8165 9.3006-1.9219 11.206-0.62717 11.242 0.33908 0.0159-0.0652 0.61754-0.8994 1.3515-1.9452 1.7114-3.8484 1.6948-5.5928-0.0483zm14.094 0.64276c-2.6234-1.1853-4.0112-3.3403-4.0076-6.2255 0.01-3.8419 1.008-6.6057 3.1851-8.7838 4.4935-4.4924 13.573-3.9742 13.573 0.77422 0 3.5021-3.086 5.7848-7.8229 5.7848-2.4105 0-2.4498 0.025-2.4498 1.7843 0 3.0867 1.9446 3.8649 5.7189 2.2882 1.7039-0.71248 1.9311-0.70524 2.2312 0.0768 1.1844 3.0856-6.2956 6.1722-10.428 4.3043zm6.4985-10.897c1.9954-2.1539 2.2132-5.6632 0.34893-5.6632-1.3828 0-2.7121 1.6932-3.5699 4.5448l-0.7487 2.4839h1.3525c0.75074 0 1.9141-0.60712 2.6172-1.3655zm11.774 11.059c-2.8341-0.86761-4.0146-3.2744-3.7393-7.6224 0.26662-4.1741 1.3386-6.3384 4.3513-8.7723 1.9102-1.544 2.4018-1.6792 6.1268-1.6792 3.8898 0 4.1112 0.0719 5.6249 1.7656 1.4002 1.5669 1.5794 2.1612 1.5794 5.2773 0 6.7608-3.386 10.909-9.2694 11.355-1.5936 0.12101-3.6973-0.0189-4.6737-0.32414zm5.7824-2.3336c0.84616-1.021 2.192-7.5854 2.2036-10.756 0.0164-4.2116-2.6914-4.268-4.1743-0.0852-0.85721 2.4167-1.5394 9.4457-1.0454 10.738 0.40531 1.0552 2.1757 1.1168 3.0161 0.10516zm10.058 1.657c0.15396-0.64761 0.97514-4.6537 1.8232-8.9024 0.85059-4.2487 1.6385-7.8061 1.7496-7.9054 0.11417-0.0994 1.3588-0.34787 2.767-0.55235l2.56-0.37159-0.29761 1.7892c-0.25364 1.5139-0.20313 1.6358 0.33109 0.79239 0.83093-1.3111 3.7931-2.5175 6.1816-2.5175 3.9835 0 4.9415 3.1766 3.2609 10.813-0.96688 4.3999-0.9698 4.0878 0.0646 5.1127 1.1614 1.1613 0.20901 2.3077-2.3112 2.7805-2.3425 0.43908-4.3776-0.44127-4.7706-2.0627-0.16341-0.67922 0.14382-3.6678 0.6844-6.6417 1.106-6.0882 1.0352-7.2987-0.43888-7.2987-1.4874 0-2.4017 2.177-3.7517 8.9211-0.65253 3.2707-1.3481 6.0987-1.5436 6.2841-0.19656 0.18524-1.7552 0.47181-3.4671 0.63669-2.9832 0.28785-3.0968 0.25251-2.8311-0.8775zm35.267 0.51326c-2.6226-0.97494-3.3562-1.6119-4.406-3.8249-2.7314-5.7555 0.98575-15.494 6.9481-18.202 2.4057-1.0918 7.9708-1.3654 10.239-0.50316 3.3917 1.2893 3.607 5.0901 0.3838 6.7566-2.6948 1.394-3.2928 1.1298-3.3013-1.4608-0.0163-2.863-0.57585-3.7956-2.1612-3.5616-2.8672 0.42354-6.6922 8.741-5.7481 12.501 0.89595 3.5717 5.1607 4.8135 8.8352 2.5727 1.7081-1.0416 1.7319-1.0416 2.0605-0.0124 0.51233 1.6135-0.88264 3.9391-2.9791 4.9642-2.7005 1.3214-7.3972 1.6854-9.8712 0.76499zm19.742 0.13806c-2.5535-0.73734-3.5176-2.5634-3.5176-6.6628 0-4.503 1.5954-7.932 4.622-9.9347 2.0625-1.3644 2.5684-1.4512 8.46-1.4535l6.2673-4e-3 -1.3365 7.1992c-1.1043 5.9503-1.2173 7.3879-0.65469 8.2896 1.3927 2.2302-2.3336 3.9328-5.3327 2.4366-1.4256-0.71148-1.8253-0.71724-3.1128-0.0477-1.6658 0.86863-2.855 0.90685-5.3949 0.17324zm6.0298-2.7749c0.82945-1.2836 3.089-12.282 2.6659-12.976-0.464-0.76186-2.7174-0.40742-3.5984 0.56576-1.5073 1.6654-3.0448 10.579-2.2042 12.771 0.47851 1.2469 2.2272 1.0454 3.1367-0.3613zm11.407 2.0823c0.14087-0.62494 1.2237-6.0962 2.4077-12.158 1.1833-6.0622 2.219-11.08 2.3028-11.151 0.0814-0.0738 1.5506-0.29816 3.2603-0.50546 2.4105-0.29249 3.1057-0.2161 3.0954 0.33766-0.0167 0.74295-0.89895 4.8894-1.3899 6.5125-0.2613 0.86179-0.13922 0.87198 1.6245 0.13526 2.921-1.2205 5.5474-1.0244 7.1022 0.53036 0.72998 0.7298 1.3282 1.8325 1.3282 2.4504 0 1.9981-1.5302 4.8544-2.9466 5.4995-0.75799 0.34539-1.3799 0.96227-1.3799 1.37 0 1.1151 1.581 4.6718 2.2624 5.0939 0.93183 0.57595 0.0817 2.0587-1.5313 2.6721-3.3909 1.2896-5.8866-0.64444-6.7419-5.227-0.44044-2.3533-0.37967-2.5367 1.3864-4.2025 2.8024-2.6433 3.3062-6.2801 0.86932-6.2801-1.7176 0-2.5763 1.9706-3.8483 8.8293-0.65294 3.5182-1.4593 6.4803-1.792 6.5826-0.33406 0.10221-1.8788 0.28965-3.4352 0.41658-2.6472 0.21595-2.8119 0.15783-2.574-0.90544zm25.729 0.59042c-2.9472-1.0323-4.1145-3.0956-4.0556-7.1643 0.053-2.8256 0.33781-3.9261 1.6292-6.0129 1.9803-3.2042 4.2272-4.5344 8.1902-4.8477 3.5221-0.27836 5.3628 0.43729 6.5465 2.5456 0.677 1.2072 0.6571 1.6035-0.16067 3.3294-1.0736 2.2601-3.895 3.665-7.3626 3.665-2.3914 0-3.0121 0.74954-2.4553 2.9667 0.21644 0.85929 0.85528 1.4719 1.7759 1.7033 1.2983 0.32604 2.0208 0.16576 5.1678-1.1471 0.77671-0.32392 0.9453-0.10855 0.9453 1.2014 0 1.945-1.1964 3.0882-4.055 3.8694-2.6796 0.73274-3.8222 0.71254-6.1657-0.10897zm6.1685-10.871c2.391-2.3908 2.4776-5.9586 0.13529-5.6262-1.2701 0.18047-3.6515 4.0695-3.6515 5.9646 0 1.4071 1.9596 1.2184 3.5162-0.3384zm8.1642 10.875c-0.63736-0.46619-0.89867-1.2358-0.77764-2.2878 0.38244-3.3403 5.8572-3.1005 5.8572 0.25647 0 2.4406-2.9205 3.6091-5.0795 2.0314zm-619.07-1.8394c0.20404-1.1291 1.1476-6.1888 2.0969-11.244l1.7273-9.1912 3.7452-0.42112c4.6491-0.5227 9.4875-0.12287 11.577 0.95788 3.5776 1.85 3.2906 7.8504-0.4974 10.403-1.9886 1.3402-5.3053 1.6258-7.1872 0.61859-1.0908-0.5837-1.0682-0.63444 0.59638-1.3342 1.8124-0.76241 3.3112-3.3857 3.3112-5.7978 0-1.6565-1.7262-3.2118-3.311-2.9832-1.1578 0.16734-1.3638 0.8399-3.1918 10.451l-1.9534 10.273-3.6408 0.16052-3.641 0.16368zm369.5 1.0086c0-0.91985 1.9889-12.31 3.2961-18.876l0.5651-2.8384 7.2223 4e-3 2.638 7.5878c1.4509 4.174 2.725 7.5015 2.8314 7.3952 0.10632-0.1066 0.56962-2.2444 1.0296-4.7513 2.0054-10.929 1.7522-10.234 3.7301-10.234h1.7721l-1.7834 9.5965c-0.98082 5.2784-1.9302 10.398-2.1096 11.377l-0.32621 1.7802-7.695-0.31659-2.5338-7.569-2.5338-7.5696-0.60024 2.9735c-0.68734 3.4051-2.2586 11.91-2.2586 12.225 0 0.11589-0.72987 0.21057-1.622 0.21057-1.2136 0-1.6219-0.25005-1.6219-0.9933zm-20.367-6.4818c-0.51246-2.0415 0.73429-2.6814 5.6269-2.887 3.356-0.14167 4.5216-0.0159 4.7308 0.53602 0.87284 2.2744-0.25535 2.968-5.3806 3.3082-4.5513 0.3025-4.6666 0.28027-4.9772-0.95722zm-300.92-13.11c-2.1673-1.2616-0.27137-4.8223 2.5682-4.8223 1.5416 0 3.5142 1.488 3.5142 2.6497 0 2.2317-3.7077 3.5563-6.0824 2.1726zm123.19-0.12158c-1.3345-0.9761-0.91446-3.1327 0.79645-4.0897 1.8665-1.0439 4.1527-0.41794 4.9626 1.3592 0.56088 1.2312 0.48601 1.524-0.61894 2.4182-1.4608 1.1833-3.7581 1.3226-5.1401 0.31229zm123.22-0.37745c-1.4537-1.6067-0.39511-3.6082 2.1614-4.0887 2.284-0.42755 4.0582 0.79755 4.0582 2.8041 0 2.3705-4.4118 3.2822-6.2195 1.2846z" fill="#d4aa00" stroke-width=".54065"/>
  </g>
 </g>
</svg>
